<svg width="461" height="52" viewBox="0 0 461 52" fill="none" xmlns="http://www.w3.org/2000/svg">
<g clip-path="url(#clip0_3539_10639)">
<path d="M60 29.1493H62.466C62.5606 30.9425 63.7245 32.3546 66.4233 32.3546C68.8457 32.3546 70.1042 31.2563 70.1042 29.5304C70.1042 27.8045 68.9621 27.1843 67.1726 26.8257L64.983 26.37C62.2114 25.7947 60.4655 24.4573 60.4655 21.8722C60.4655 18.9957 62.6333 17.2698 66.3069 17.2698C69.9805 17.2698 72.1701 19.0181 72.1701 21.9544H69.7041C69.6822 20.3779 68.4965 19.3692 66.256 19.3692C63.9063 19.3692 62.9752 20.49 62.9752 21.8796C62.9752 23.0526 63.6735 23.9567 65.6086 24.3676L67.7036 24.801C70.9626 25.4734 72.6357 26.8332 72.6357 29.5079C72.6357 32.758 70.1478 34.454 66.3942 34.454C62.2769 34.454 59.9927 32.377 59.9927 29.1493H60Z" fill="#1F1B1C"/>
<path d="M74.1997 29.1493H76.6657C76.7603 30.9425 77.9242 32.3546 80.623 32.3546C83.0454 32.3546 84.3039 31.2563 84.3039 29.5304C84.3039 27.8045 83.1618 27.1844 81.3723 26.8257L79.1827 26.37C76.4111 25.7947 74.6652 24.4573 74.6652 21.8722C74.6652 18.9807 76.833 17.2549 80.5066 17.2549C84.1802 17.2549 86.3698 19.0032 86.3698 21.9394H83.9038C83.882 20.363 82.6962 19.3543 80.4557 19.3543C78.106 19.3543 77.1749 20.475 77.1749 21.8647C77.1749 23.0377 77.8733 23.9418 79.8083 24.3527L81.9033 24.786C85.1623 25.4585 86.8354 26.8183 86.8354 29.493C86.8354 32.7431 84.3475 34.4391 80.5939 34.4391C76.4766 34.4391 74.1924 32.362 74.1924 29.1344L74.1997 29.1493Z" fill="#1F1B1C"/>
<path d="M87.585 17.4864H90.051L93.2663 30.7332H93.3827L97.1727 17.4864H99.7115L103.48 30.7332H103.596L106.811 17.4864H109.277L104.971 34.2224H102.41L98.4312 20.6468L94.452 34.2224H91.9133L87.585 17.4864Z" fill="#1F1B1C"/>
<path d="M110.841 27.8866V17.4864H113.263V27.7148C113.263 30.6809 114.754 32.2798 117.242 32.2798C119.73 32.2798 121.221 30.6809 121.221 27.7148V17.4864H123.666V27.8866C123.666 32.1901 121.105 34.4614 117.242 34.4614C113.38 34.4614 110.841 32.1901 110.841 27.8866Z" fill="#1F1B1C"/>
<path d="M130.904 17.4864H136.469C141.59 17.4864 144.173 20.4974 144.173 25.8544C144.173 31.2114 141.59 34.2224 136.469 34.2224H130.904V17.4864ZM141.707 25.8544C141.707 21.6256 140.099 19.6606 136.236 19.6606H133.327V32.0482H136.236C140.099 32.0482 141.707 30.0608 141.707 25.8544Z" fill="#1F1B1C"/>
<path d="M146.057 17.4864H156.648V19.6606H148.479V24.6814H155.95V26.6688H148.479V32.0482H156.881V34.2224H146.057V17.4864Z" fill="#1F1B1C"/>
<path d="M158.212 29.1493H160.678C160.773 30.9425 161.937 32.3546 164.636 32.3546C167.058 32.3546 168.317 31.2563 168.317 29.5304C168.317 27.8045 167.174 27.1844 165.385 26.8257L163.195 26.37C160.424 25.7947 158.678 24.4573 158.678 21.8722C158.678 18.9807 160.846 17.2549 164.519 17.2549C168.193 17.2549 170.383 19.0032 170.383 21.9394H167.916C167.895 20.363 166.709 19.3543 164.468 19.3543C162.119 19.3543 161.188 20.475 161.188 21.8647C161.188 23.0377 161.886 23.9418 163.821 24.3527L165.916 24.786C169.175 25.4585 170.848 26.8183 170.848 29.493C170.848 32.7431 168.36 34.4391 164.607 34.4391C160.489 34.4391 158.205 32.362 158.205 29.1344L158.212 29.1493Z" fill="#1F1B1C"/>
<path d="M172.762 17.4864H175.184V34.2224H172.762V17.4864Z" fill="#1F1B1C"/>
<path d="M177.068 25.8993C177.068 20.2808 180.073 17.2698 184.496 17.2698C187.733 17.2698 190.315 18.8687 190.919 22.0963H188.518C187.936 20.2285 186.401 19.4215 184.488 19.4215C181.229 19.4215 179.483 21.8124 179.483 25.832C179.483 29.8516 181.273 32.3097 184.532 32.3097C187.02 32.3097 188.998 30.8752 188.977 27.4533H185.208V25.4435H191.377V26.7809C191.377 31.8241 188.817 34.454 184.51 34.454C179.905 34.454 177.061 31.3907 177.061 25.8918L177.068 25.8993Z" fill="#1F1B1C"/>
<path d="M193.406 17.4864H196.011L203.969 30.3223H204.041V17.4864H206.464V34.2224H203.765L195.872 21.506H195.829V34.2224H193.406V17.4864Z" fill="#1F1B1C"/>
<path d="M213.382 25.8993C213.382 20.2808 216.386 17.2698 220.809 17.2698C224.046 17.2698 226.629 18.8687 227.232 22.0963H224.832C224.25 20.2285 222.715 19.4215 220.802 19.4215C217.543 19.4215 215.797 21.8124 215.797 25.832C215.797 29.8516 217.586 32.3097 220.845 32.3097C223.333 32.3097 225.312 30.8752 225.29 27.4533H221.522V25.4435H227.691V26.7809C227.691 31.8241 225.13 34.454 220.824 34.454C216.219 34.454 213.375 31.3907 213.375 25.8918L213.382 25.8993Z" fill="#1F1B1C"/>
<path d="M229.72 21.79H232.07V24.659H232.143C232.492 23.2021 233.634 21.6481 235.845 21.6481C236.151 21.6481 236.471 21.6705 236.755 21.7676V23.7998C236.449 23.755 236.173 23.7251 235.867 23.7251C233.612 23.7251 232.07 25.2343 232.07 28.0062V34.2224H229.72V21.79Z" fill="#1F1B1C"/>
<path d="M237.031 30.9724C237.031 28.5815 238.733 27.6028 240.893 27.3413L243.898 26.9826C245.018 26.8407 245.389 26.624 245.389 26.243V25.9067C245.389 23.9193 244.385 23.3963 242.69 23.3963C240.995 23.3963 239.97 23.9193 239.97 25.5033V25.7872H237.715V25.2866C237.715 22.7986 239.417 21.5584 242.741 21.5584C246.066 21.5584 247.746 22.8733 247.746 25.8843V34.2299H245.535V32.2201H245.44C245.207 32.6983 244.065 34.469 241.09 34.469C238.835 34.469 237.038 33.4379 237.038 30.9798L237.031 30.9724ZM245.389 29.6051V28.2453C245.229 28.5068 244.924 28.6786 243.738 28.8206L241.454 29.1344C239.941 29.3286 239.38 29.8741 239.38 30.8528C239.38 32.0258 240.195 32.5712 241.665 32.5712C244.225 32.5712 245.389 30.9425 245.389 29.6051Z" fill="#1F1B1C"/>
<path d="M249.274 28.0061C249.274 23.4859 251.973 21.5508 254.672 21.5508C256.462 21.5508 258.004 22.3876 258.724 23.7474V17.4864H261.074V34.2224H258.724V32.2648C258.004 33.6246 256.469 34.4614 254.672 34.4614C251.973 34.4614 249.274 32.5039 249.274 28.0061ZM258.84 28.0061C258.84 24.9727 257.022 23.5831 255.159 23.5831C253.297 23.5831 251.508 24.9727 251.508 28.0061C251.508 31.0395 253.275 32.4292 255.159 32.4292C257.044 32.4292 258.84 31.0395 258.84 28.0061Z" fill="#1F1B1C"/>
<path d="M268.523 32.4293C270.428 32.4293 271.76 31.2114 271.76 28.9849V21.79H274.109V34.2224H271.76V31.7344H271.687C271.476 32.6683 270.312 34.4615 267.613 34.4615C265.242 34.4615 263.329 33.0494 263.329 29.5378V21.79H265.678V28.9849C265.678 31.2114 266.609 32.4293 268.515 32.4293H268.523Z" fill="#1F1B1C"/>
<path d="M275.789 30.9724C275.789 28.5815 277.491 27.6028 279.652 27.3413L282.656 26.9826C283.776 26.8407 284.147 26.624 284.147 26.243V25.9067C284.147 23.9193 283.144 23.3963 281.449 23.3963C279.754 23.3963 278.728 23.9193 278.728 25.5033V25.7872H276.473V25.2866C276.473 22.7986 278.175 21.5584 281.499 21.5584C284.824 21.5584 286.504 22.8733 286.504 25.8843V34.2299H284.293V32.2201H284.198C283.966 32.6983 282.823 34.469 279.848 34.469C277.593 34.469 275.796 33.4379 275.796 30.9798L275.789 30.9724ZM284.147 29.6051V28.2453C283.987 28.5068 283.682 28.6786 282.496 28.8206L280.212 29.1344C278.699 29.3286 278.139 29.8741 278.139 30.8528C278.139 32.0258 278.953 32.5712 280.423 32.5712C282.983 32.5712 284.147 30.9425 284.147 29.6051Z" fill="#1F1B1C"/>
<path d="M289.546 31.062V23.6952H287.567V21.7826H289.546V18.6595H291.896V21.79H294.296V23.7027H291.896V30.6586C291.896 31.8764 292.289 32.4293 293.598 32.4293C293.874 32.4293 294.085 32.4293 294.456 32.3845V34.2C294.013 34.3196 293.503 34.3943 292.943 34.3943C290.921 34.3943 289.546 33.5127 289.546 31.0695V31.062Z" fill="#1F1B1C"/>
<path d="M295.779 18.2037C295.779 17.4118 296.434 16.7692 297.176 16.7692C297.918 16.7692 298.573 17.4118 298.573 18.2037C298.573 18.9957 297.918 19.6382 297.176 19.6382C296.434 19.6382 295.779 19.0181 295.779 18.2037ZM296.019 21.79H298.369V34.2224H296.019V21.79Z" fill="#1F1B1C"/>
<path d="M300.042 28.0062C300.042 23.5607 302.93 21.5509 305.927 21.5509C308.924 21.5509 311.841 23.5607 311.841 28.0062C311.841 32.4517 308.953 34.4615 305.927 34.4615C302.901 34.4615 300.042 32.4517 300.042 28.0062ZM309.608 28.0062C309.608 24.9429 307.884 23.5831 305.927 23.5831C303.97 23.5831 302.275 24.9429 302.275 28.0062C302.275 31.0695 303.977 32.4293 305.927 32.4293C307.877 32.4293 309.608 31.0695 309.608 28.0062Z" fill="#1F1B1C"/>
<path d="M319.109 23.5831C317.203 23.5831 315.872 24.8009 315.872 27.0274V34.2224H313.522V21.79H315.872V24.2779H315.945C316.156 23.344 317.32 21.5509 320.019 21.5509C322.39 21.5509 324.303 22.963 324.303 26.4745V34.2224H321.954V27.0274C321.954 24.8009 321.022 23.5831 319.117 23.5831H319.109Z" fill="#1F1B1C"/>
<path d="M331.563 17.4864H342.155V19.6606H333.985V24.6814H341.456V26.6688H333.985V32.0482H342.387V34.2224H331.563V17.4864Z" fill="#1F1B1C"/>
<path d="M347.764 27.9315L343.646 21.79H346.229L349.066 26.1682L351.932 21.79H354.514L350.397 27.9315L354.682 34.2224H352.099L349.073 29.7022L346.047 34.2224H343.486L347.771 27.9315H347.764Z" fill="#1F1B1C"/>
<path d="M361.94 23.5831C360.034 23.5831 358.703 24.8009 358.703 27.0274V34.2224H356.354V17.4864H358.703V24.2779H358.776C358.987 23.344 360.151 21.5508 362.85 21.5508C365.221 21.5508 367.134 22.9629 367.134 26.4745V34.2224H364.785V27.0274C364.785 24.8009 363.853 23.5831 361.948 23.5831H361.94Z" fill="#1F1B1C"/>
<path d="M369.157 18.2037C369.157 17.4118 369.812 16.7692 370.554 16.7692C371.296 16.7692 371.951 17.4118 371.951 18.2037C371.951 18.9957 371.296 19.6382 370.554 19.6382C369.812 19.6382 369.157 19.0181 369.157 18.2037ZM369.39 21.79H371.74V34.2224H369.39V21.79Z" fill="#1F1B1C"/>
<path d="M376.352 32.2574V34.2149H374.002V17.4864H376.352V23.7474C377.072 22.3876 378.607 21.5508 380.403 21.5508C383.102 21.5508 385.801 23.4859 385.801 28.0061C385.801 32.5263 383.102 34.4614 380.403 34.4614C378.614 34.4614 377.072 33.6246 376.352 32.2648V32.2574ZM383.561 28.0061C383.561 24.9727 381.793 23.5831 379.909 23.5831C378.025 23.5831 376.228 24.9727 376.228 28.0061C376.228 31.0395 378.047 32.4292 379.909 32.4292C381.771 32.4292 383.561 31.0395 383.561 28.0061Z" fill="#1F1B1C"/>
<path d="M387.241 18.2037C387.241 17.4118 387.895 16.7692 388.637 16.7692C389.379 16.7692 390.034 17.4118 390.034 18.2037C390.034 18.9957 389.379 19.6382 388.637 19.6382C387.895 19.6382 387.241 19.0181 387.241 18.2037ZM387.474 21.79H389.823V34.2224H387.474V21.79Z" fill="#1F1B1C"/>
<path d="M393.251 31.062V23.6952H391.272V21.7826H393.251V18.6595H395.6V21.79H398.001V23.7027H395.6V30.6586C395.6 31.8764 395.993 32.4293 397.302 32.4293C397.579 32.4293 397.79 32.4293 398.161 32.3845V34.2C397.717 34.3196 397.208 34.3943 396.648 34.3943C394.625 34.3943 393.251 33.5127 393.251 31.0695V31.062Z" fill="#1F1B1C"/>
<path d="M399.484 18.2037C399.484 17.4118 400.139 16.7692 400.881 16.7692C401.623 16.7692 402.278 17.4118 402.278 18.2037C402.278 18.9957 401.623 19.6382 400.881 19.6382C400.139 19.6382 399.484 19.0181 399.484 18.2037ZM399.717 21.79H402.067V34.2224H399.717V21.79Z" fill="#1F1B1C"/>
<path d="M403.747 28.0062C403.747 23.5607 406.635 21.5509 409.632 21.5509C412.629 21.5509 415.546 23.5607 415.546 28.0062C415.546 32.4517 412.658 34.4615 409.632 34.4615C406.606 34.4615 403.747 32.4517 403.747 28.0062ZM413.313 28.0062C413.313 24.9429 411.589 23.5831 409.632 23.5831C407.675 23.5831 405.98 24.9429 405.98 28.0062C405.98 31.0695 407.683 32.4293 409.632 32.4293C411.582 32.4293 413.313 31.0695 413.313 28.0062Z" fill="#1F1B1C"/>
<path d="M422.813 23.5831C420.907 23.5831 419.576 24.8009 419.576 27.0274V34.2224H417.226V21.79H419.576V24.2779H419.648C419.859 23.344 421.023 21.5509 423.722 21.5509C426.094 21.5509 428.007 22.963 428.007 26.4745V34.2224H425.657V27.0274C425.657 24.8009 424.726 23.5831 422.82 23.5831H422.813Z" fill="#1F1B1C"/>
</g>
<path d="M64.3692 21.886C63.6983 22.5632 62.7255 22.9226 61.7219 22.8156L59.2977 22.5517C58.8872 22.6351 58.4645 22.6401 58.0542 22.5637C58.2343 23.257 58.165 23.9956 57.8425 24.6509C57.4317 25.4803 56.663 26.0913 55.7453 26.3156C55.6941 26.3314 55.643 26.3495 55.5919 26.3677C55.0153 26.5702 53.6624 27.0454 52.2282 26.3359C51.3452 25.8988 49.2852 24.6424 49.2501 22.436C49.2047 19.5458 50.8633 17.1714 53.4755 16.3882C54.4429 16.0981 56.4119 15.5098 58.5386 16.1064C60.3622 15.508 62.3117 15.931 64.1065 17.3691C65.1914 18.2365 65.5562 19.6944 65.0079 20.9498C64.8536 21.3047 64.6367 21.6184 64.3716 21.8835L64.3692 21.886Z" fill="white" stroke="#1F1B1C" stroke-width="0.75" stroke-miterlimit="10"/>
<path d="M431.696 18.6051C431.369 18.6051 431.039 18.5205 430.762 18.3462C430.733 18.3313 430.647 18.289 430.588 18.2616C430.205 18.0799 429.563 17.7738 429.295 17.1167C429.198 16.8753 429.051 16.6139 428.894 16.3377C428.349 15.367 427.601 14.0379 428.358 12.328C428.544 11.9049 428.971 11.5888 429.492 11.4892L431.142 11.1756C431.799 11.0512 432.477 11.2876 432.833 11.7705L434.63 14.1947C434.866 14.5133 434.933 14.8991 434.816 15.26C434.48 16.2929 433.994 17.3731 432.724 18.2865C432.429 18.4981 432.064 18.6051 431.696 18.6051Z" fill="white" stroke="#1F1B1C" stroke-width="0.75" stroke-miterlimit="10"/>
<path d="M443.956 42.3429C443.62 42.3429 443.284 42.3192 442.943 42.2758C441.735 42.1181 440.849 41.7197 440.47 41.5502L440.498 41.562C438.551 40.7772 437.239 39.1957 437.05 37.3974C436.87 35.6621 437.76 33.9742 439.404 32.9134C440.849 31.8919 442.426 31.4187 444.122 31.4818C444.662 31.5015 445.307 31.5843 445.993 31.7934C446.576 30.3894 447.926 29.2615 450.029 28.4214C450.233 28.3386 450.475 28.2479 450.726 28.1296C452.526 27.2975 454.705 27.2699 456.534 28.0586C458.362 28.8474 459.594 30.342 459.816 32.0457L460.214 35.0745C460.408 36.5495 459.821 38.0205 458.613 39.105C457.448 40.1501 455.813 40.7417 454.108 40.7417H454.07L453.933 40.7496C451.957 40.8718 450.484 40.5406 449.39 40.016C448.902 40.5761 448.277 41.0572 447.542 41.42C446.391 42.0313 445.188 42.3389 443.952 42.3389L443.956 42.3429Z" fill="white" stroke="#1F1B1C" stroke-width="0.75" stroke-miterlimit="10"/>
<path d="M298.926 20.5586C300.005 20.6966 301.115 20.5358 302.063 20.0715L302.503 19.8573C303.855 19.199 304.71 18.0155 304.796 16.6865C304.828 16.2166 304.76 15.7489 304.607 15.3024C305.571 15.2 306.468 14.8581 307.177 14.3184C307.801 14.3289 308.473 14.3429 309.223 14.3569C311.233 14.3957 313.013 13.4075 313.716 11.8596C314.421 10.312 313.909 8.51934 312.421 7.33139C310.211 5.56974 306.734 4.01572 302.448 6.22932C300.858 6.62886 299.62 7.70879 299.254 9.12846L298.98 10.1803C298.835 10.74 298.834 11.3031 298.963 11.8433C298.343 11.8681 297.727 11.9929 297.155 12.2199C295.442 12.8991 294.409 14.3774 294.515 15.9915L294.551 16.5396C294.648 17.9938 295.651 19.3331 297.194 20.059C297.741 20.3176 298.328 20.4845 298.923 20.5606L298.926 20.5586Z" fill="white" stroke="#1F1B1C" stroke-width="0.75" stroke-miterlimit="10"/>
<defs>
<clipPath id="clip0_3539_10639">
<rect width="368" height="20" fill="white" transform="translate(60 16)"/>
</clipPath>
</defs>
</svg>
