<svg width="32" height="32" viewBox="0 0 32 32" fill="none" xmlns="http://www.w3.org/2000/svg">
<g clip-path="url(#clip0_3539_10736)">
<path d="M25.4763 3.07074C24.4672 2.50225 23.3242 2.348 22.3819 2.65477C18.3324 3.09971 12.8088 4.55441 8.11874 1.51076C7.11373 0.858551 5.92766 0.630825 4.92926 0.898287C3.92842 1.16404 3.23779 1.89538 3.06029 2.86502C2.95971 3.42382 2.82903 3.97887 2.70813 4.51476C2.22426 6.612 1.72868 8.33348 2.85327 11.2546C3.46337 12.8338 3.22976 14.3299 2.65463 16.2304C2.17888 17.8022 2.00578 19.2223 2.1201 20.5696C2.25114 22.1162 2.52803 23.6727 2.79492 25.176C2.90687 25.8 3.02071 26.4368 3.12506 27.0873C3.36512 28.5717 4.65204 29.9324 6.25037 30.397L12.2184 31.463C13.1276 31.7276 14.0375 31.6695 14.757 31.3019C16.3641 30.4824 18.2185 29.9784 20.2402 29.4494C22.8639 28.7619 25.5234 29.3649 27.8145 27.8701C28.0817 27.6964 28.3068 27.4789 28.4804 27.2311C28.8318 26.7297 28.9853 26.0953 28.9026 25.4139C28.7684 24.2923 28.613 23.2164 28.4647 22.1772C28.1555 20.018 27.9193 17.3258 27.8952 15.45C27.8545 12.1394 28.3838 8.43025 27.54 5.57025C27.245 4.56394 26.4803 3.64138 25.4712 3.07288L25.4763 3.07074ZM20.8464 14.1223C20.873 16.3838 21.1938 18.6147 21.531 20.9726C21.5926 21.4141 21.6577 21.861 21.7212 22.3153C20.3594 22.9199 18.7376 23.3452 17.0456 23.7877C15.2193 24.266 13.3394 24.7587 11.542 25.5229L9.66393 24.9748C9.44436 23.7414 9.24835 22.5678 9.15506 21.4604C9.1033 20.8439 9.21428 20.073 9.48963 19.1662C10.2597 16.6085 10.789 13.7665 9.45613 10.307C9.22 9.69409 9.19996 9.07387 9.31121 8.2974C13.0901 10.0099 17.4603 10.0386 21.074 9.69263C21.3245 10.939 20.8351 12.8616 20.8502 14.1221L20.8464 14.1223Z" fill="white" stroke="#1F1B1C" stroke-width="0.6" stroke-miterlimit="10"/>
<path d="M18.1256 12.0701C17.9566 12.0701 17.7845 12.0461 17.6123 11.9921L17.0397 11.8181C16.4983 11.6531 16.0821 11.2391 15.9288 10.7171C15.9256 10.7021 15.9194 10.6871 15.9163 10.6721C15.9037 10.6211 15.8912 10.5731 15.8818 10.5191C15.7848 9.95507 16.007 9.38205 16.4608 9.01604C16.4952 8.98004 16.5265 8.94404 16.5578 8.90804L16.5734 8.88404C16.5953 8.85404 16.6141 8.82703 16.636 8.79703C17.1367 8.12801 18.0818 7.92401 18.8297 8.32603C19.4149 8.64103 19.7341 9.24405 19.6902 9.85307C19.8311 10.1951 19.853 10.5851 19.7215 10.9631C19.4837 11.6381 18.8752 12.0701 18.168 12.0701H18.1256Z" fill="white" stroke="#1F1B1C" stroke-width="0.6" stroke-miterlimit="10"/>
<path d="M17.376 19.2946C17.1857 19.8408 16.862 20.3474 16.4048 20.765L16.0786 21.0615C14.6601 22.3564 12.4731 22.307 11.1115 20.9503L9.10984 18.9511C8.41296 18.2543 8.03239 17.3028 8.05463 16.3168C8.07935 15.3308 8.50684 14.3992 9.23832 13.7394L9.72022 13.302C10.4393 12.652 11.3883 12.3184 12.357 12.3802C13.3232 12.4395 14.2252 12.8868 14.8578 13.6208L16.7014 15.7583C17.5688 16.7641 17.7837 18.1183 17.3735 19.2921L17.376 19.2946Z" fill="white" stroke="#1F1B1C" stroke-width="0.6" stroke-miterlimit="10"/>
</g>
<defs>
<clipPath id="clip0_3539_10736">
<rect width="32" height="32" fill="white"/>
</clipPath>
</defs>
</svg>
