<svg width="48" height="48" viewBox="0 0 48 48" fill="none" xmlns="http://www.w3.org/2000/svg">
<g clip-path="url(#clip0_5549_5264)">
<path d="M38.1748 6.33106C36.8293 5.57307 35.3054 5.3674 34.049 5.77642C28.6495 6.36968 21.2848 8.30928 15.0314 4.25108C13.6914 3.38147 12.1099 3.07783 10.7787 3.43445C9.44427 3.78879 8.52343 4.76391 8.28676 6.05676C8.15266 6.80182 7.97842 7.54189 7.81722 8.25642C7.17207 11.0527 6.51128 13.348 8.01074 17.2429C8.82421 19.3485 8.51273 21.3432 7.74588 23.8772C7.11155 25.973 6.88076 27.8665 7.03318 29.6629C7.2079 31.725 7.57709 33.8004 7.93294 35.8047C8.08221 36.6367 8.234 37.4858 8.37312 38.3531C8.6932 40.3324 10.4091 42.1466 12.5402 42.7661L20.4976 44.1874C21.7099 44.5403 22.9231 44.4628 23.8824 43.9726C26.0252 42.8799 28.4977 42.2079 31.1933 41.5025C34.6916 40.586 38.2375 41.39 41.2924 39.3968C41.6486 39.1653 41.9488 38.8753 42.1803 38.5449C42.6487 37.8763 42.8534 37.0305 42.7432 36.122C42.5642 34.6264 42.3571 33.192 42.1593 31.8064C41.7471 28.9274 41.4321 25.3378 41.4 22.8367C41.3457 18.4227 42.0514 13.4771 40.9264 9.66373C40.533 8.32199 39.5135 7.0919 38.168 6.33391L38.1748 6.33106ZM32.0016 21.0664C32.037 24.0818 32.4647 27.0563 32.9144 30.2002C32.9965 30.7888 33.0834 31.3847 33.168 31.9905C31.3522 32.7966 29.1898 33.3637 26.9338 33.9536C24.4988 34.5915 21.9922 35.2484 19.5957 36.2672L17.0916 35.5365C16.7989 33.892 16.5375 32.3271 16.4131 30.8506C16.3441 30.0286 16.4921 29.0008 16.8592 27.7916C17.886 24.3814 18.5917 20.5921 16.8146 15.9793C16.4997 15.1622 16.473 14.3352 16.6213 13.2999C21.6599 15.5832 27.4868 15.6215 32.305 15.1602C32.639 16.8221 31.9865 19.3855 32.0066 21.0661L32.0016 21.0664Z" fill="white" stroke="#1F1B1C" stroke-miterlimit="10"/>
<path d="M28.3732 18.3306C28.1478 18.3306 27.9183 18.2986 27.6889 18.2266L26.9253 17.9946C26.2035 17.7745 25.6485 17.2225 25.4441 16.5265C25.4399 16.5065 25.4316 16.4865 25.4274 16.4665C25.4107 16.3985 25.394 16.3345 25.3815 16.2625C25.2521 15.5105 25.5484 14.7465 26.1534 14.2584C26.1993 14.2104 26.241 14.1625 26.2827 14.1144L26.3036 14.0824C26.3328 14.0424 26.3578 14.0064 26.387 13.9664C27.0546 13.0744 28.3147 12.8024 29.312 13.3384C30.0922 13.7584 30.5178 14.5625 30.4594 15.3745C30.6472 15.8305 30.6763 16.3505 30.5011 16.8545C30.184 17.7545 29.3727 18.3306 28.4297 18.3306H28.3732Z" fill="white" stroke="#1F1B1C" stroke-miterlimit="10"/>
<path d="M27.375 27.9628C27.1213 28.691 26.6897 29.3665 26.0801 29.9233L25.6452 30.3187C23.7539 32.0452 20.8379 31.9794 19.0224 30.1704L16.3535 27.5048C15.4243 26.5757 14.9169 25.3071 14.9465 23.9924C14.9795 22.6778 15.5495 21.4356 16.5248 20.5558L17.1673 19.9726C18.1262 19.106 19.3914 18.6612 20.683 18.7436C21.9713 18.8227 23.174 19.4191 24.0175 20.3977L26.4755 23.2478C27.632 24.5888 27.9187 26.3944 27.3717 27.9595L27.375 27.9628Z" fill="white" stroke="#1F1B1C" stroke-miterlimit="10"/>
</g>
<defs>
<clipPath id="clip0_5549_5264">
<rect width="48" height="48" fill="white"/>
</clipPath>
</defs>
</svg>
