<svg width="211" height="56" viewBox="0 0 211 56" fill="none" xmlns="http://www.w3.org/2000/svg">
<g clip-path="url(#clip0_5549_7545)">
<path d="M24.0002 21.3835H25.8002C25.8702 22.6435 26.7202 23.6456 28.6902 23.6456C30.4602 23.6456 31.3802 22.8717 31.3802 21.6514C31.3802 20.4311 30.5502 19.9945 29.2402 19.7465L27.6402 19.429C25.6102 19.0222 24.3402 18.0797 24.3402 16.2542C24.3402 14.2104 25.9202 13 28.6102 13C31.3002 13 32.8902 14.2302 32.8902 16.3038H31.0902C31.0702 15.1926 30.2102 14.4783 28.5702 14.4783C26.8502 14.4783 26.1702 15.272 26.1702 16.2542C26.1702 17.0777 26.6802 17.7225 28.0902 18.0103L29.6202 18.3178C32.0002 18.794 33.2202 19.7465 33.2202 21.6414C33.2202 23.9333 31.4002 25.1337 28.6602 25.1337C25.6502 25.1337 23.9902 23.6654 23.9902 21.3934L24.0002 21.3835Z" fill="#1F1B1C"/>
<path d="M34.3694 21.3835H36.1694C36.2394 22.6435 37.0894 23.6456 39.0594 23.6456C40.8294 23.6456 41.7494 22.8717 41.7494 21.6514C41.7494 20.4311 40.9194 19.9945 39.6094 19.7465L38.0094 19.429C35.9894 19.0222 34.7094 18.0797 34.7094 16.2542C34.7094 14.2104 36.2894 13 38.9794 13C41.6694 13 43.2594 14.2302 43.2594 16.3038H41.4594C41.4394 15.1926 40.5794 14.4783 38.9394 14.4783C37.2194 14.4783 36.5394 15.272 36.5394 16.2542C36.5394 17.0777 37.0494 17.7225 38.4594 18.0103L39.9894 18.3178C42.3694 18.794 43.5894 19.7465 43.5894 21.6414C43.5894 23.9333 41.7694 25.1337 39.0294 25.1337C36.0194 25.1337 34.3594 23.6654 34.3594 21.3934L34.3694 21.3835Z" fill="#1F1B1C"/>
<path d="M44.1504 13.1489H45.9504L48.3004 22.4948H48.3804L51.1504 13.1489H53.0004L55.7504 22.4948H55.8304L58.1904 13.1489H59.9904L56.8504 24.9553H54.9804L52.0704 15.3812L49.1604 24.9553H47.3104L44.1504 13.1489Z" fill="#1F1B1C"/>
<path d="M61.1309 20.4907V13.1489H62.9009V20.3716C62.9009 22.465 63.9909 23.5961 65.8109 23.5961C67.6309 23.5961 68.7209 22.465 68.7209 20.3716V13.1489H70.5109V20.4808C70.5109 23.5167 68.6409 25.114 65.8209 25.114C63.0009 25.114 61.1509 23.5167 61.1509 20.4808L61.1309 20.4907Z" fill="#1F1B1C"/>
<path d="M75.7793 13.1489H79.8393C83.5793 13.1489 85.4693 15.2721 85.4693 19.0521C85.4693 22.8321 83.5793 24.9553 79.8393 24.9553H75.7793V13.1489ZM83.6693 19.0521C83.6693 16.0658 82.4993 14.6867 79.6793 14.6867H77.5593V23.4274H79.6793C82.4993 23.4274 83.6693 22.0285 83.6693 19.062V19.0521Z" fill="#1F1B1C"/>
<path d="M86.8496 13.1489H94.5796V14.6867H88.6096V18.2286H94.0696V19.6275H88.6096V23.4175H94.7496V24.9553H86.8496V13.1489Z" fill="#1F1B1C"/>
<path d="M95.7209 21.3835H97.5209C97.5909 22.6435 98.4409 23.6456 100.411 23.6456C102.181 23.6456 103.101 22.8717 103.101 21.6514C103.101 20.4311 102.271 19.9945 100.961 19.7465L99.3609 19.429C97.3409 19.0222 96.0609 18.0797 96.0609 16.2542C96.0609 14.2104 97.6409 13 100.331 13C103.021 13 104.611 14.2302 104.611 16.3038H102.811C102.791 15.1926 101.931 14.4783 100.291 14.4783C98.5709 14.4783 97.8909 15.272 97.8909 16.2542C97.8909 17.0777 98.4009 17.7225 99.8109 18.0103L101.341 18.3178C103.721 18.794 104.941 19.7465 104.941 21.6414C104.941 23.9333 103.121 25.1337 100.381 25.1337C97.3709 25.1337 95.7109 23.6654 95.7109 21.3934L95.7209 21.3835Z" fill="#1F1B1C"/>
<path d="M106.35 13.1489H108.12V24.9553H106.35V13.1489Z" fill="#1F1B1C"/>
<path d="M109.49 19.0917C109.49 15.1331 111.68 13 114.91 13C117.27 13 119.16 14.131 119.6 16.403H117.85C117.42 15.0835 116.3 14.518 114.91 14.518C112.53 14.518 111.26 16.2046 111.26 19.0421C111.26 21.8796 112.57 23.6158 114.95 23.6158C116.77 23.6158 118.21 22.6038 118.2 20.1929H115.45V18.7742H119.95V19.7167C119.95 23.2785 118.08 25.1337 114.94 25.1337C111.57 25.1337 109.5 22.9709 109.5 19.0917H109.49Z" fill="#1F1B1C"/>
<path d="M121.43 13.1489H123.33L129.14 22.2071H129.19V13.1489H130.96V24.9553H128.99L123.23 15.9864H123.2V24.9553H121.43V13.1489Z" fill="#1F1B1C"/>
<path d="M24 35.9579C24 31.9993 26.19 29.8662 29.42 29.8662C31.78 29.8662 33.67 30.9972 34.11 33.2692H32.36C31.93 31.9497 30.81 31.3842 29.42 31.3842C27.04 31.3842 25.77 33.0708 25.77 35.9083C25.77 38.7458 27.08 40.482 29.46 40.482C31.28 40.482 32.72 39.47 32.71 37.0592H29.96V35.6404H34.46V36.5829C34.46 40.1447 32.59 42 29.45 42C26.08 42 24.01 39.8371 24.01 35.9579H24Z" fill="#1F1B1C"/>
<path d="M35.9299 33.0509H37.6499V35.0748H37.6999C37.9499 34.043 38.7899 32.9517 40.3999 32.9517C40.6199 32.9517 40.8599 32.9715 41.0599 33.031V34.4597C40.8399 34.4299 40.6399 34.4101 40.4099 34.4101C38.7599 34.4101 37.6399 35.4717 37.6399 37.4262V41.8114H35.9199V33.041L35.9299 33.0509Z" fill="#1F1B1C"/>
<path d="M41.2698 39.5294C41.2698 37.8428 42.5098 37.1483 44.0898 36.9697L46.2798 36.7217C47.0998 36.6225 47.3698 36.4737 47.3698 36.1959V35.9578C47.3698 34.5589 46.6398 34.1918 45.3998 34.1918C44.1598 34.1918 43.4098 34.5589 43.4098 35.68V35.8784H41.7598V35.5212C41.7598 33.7652 42.9998 32.8921 45.4298 32.8921C47.8598 32.8921 49.0798 33.8247 49.0798 35.9478V41.8312H47.4698V40.4124H47.3998C47.2298 40.7498 46.3998 41.9998 44.2198 41.9998C42.5698 41.9998 41.2598 41.2756 41.2598 39.5394L41.2698 39.5294ZM47.3698 38.5671V37.6047C47.2498 37.7932 47.0298 37.9123 46.1598 38.0115L44.4898 38.2297C43.3798 38.3686 42.9798 38.7556 42.9798 39.4401C42.9798 40.2636 43.5698 40.6505 44.6498 40.6505C46.5198 40.6505 47.3698 39.4997 47.3698 38.5572V38.5671Z" fill="#1F1B1C"/>
<path d="M50.2109 37.4363C50.2109 34.2515 52.1809 32.8824 54.1509 32.8824C55.4609 32.8824 56.5809 33.4777 57.1109 34.4301V30.0151H58.8309V41.8215H57.1109V40.4424C56.5809 41.4048 55.4609 41.9901 54.1509 41.9901C52.1809 41.9901 50.2109 40.6111 50.2109 37.4363ZM57.2009 37.4363C57.2009 35.2933 55.8709 34.3111 54.5109 34.3111C53.1509 34.3111 51.8409 35.2933 51.8409 37.4363C51.8409 39.5793 53.1309 40.5516 54.5109 40.5516C55.8909 40.5516 57.2009 39.5693 57.2009 37.4363Z" fill="#1F1B1C"/>
<path d="M64.2705 40.5612C65.6605 40.5612 66.6305 39.6981 66.6305 38.1305V33.0508H68.3505V41.8212H66.6305V40.0651H66.5805C66.4305 40.7199 65.5805 41.9899 63.6105 41.9899C61.8805 41.9899 60.4805 40.9977 60.4805 38.5174V33.0508H62.2005V38.1305C62.2005 39.6981 62.8805 40.5612 64.2705 40.5612Z" fill="#1F1B1C"/>
<path d="M69.5803 39.5294C69.5803 37.8428 70.8203 37.1483 72.4003 36.9697L74.5903 36.7217C75.4103 36.6225 75.6803 36.4737 75.6803 36.1959V35.9578C75.6803 34.5589 74.9503 34.1918 73.7103 34.1918C72.4703 34.1918 71.7203 34.5589 71.7203 35.68V35.8784H70.0703V35.5212C70.0703 33.7652 71.3103 32.8921 73.7403 32.8921C76.1703 32.8921 77.3903 33.8247 77.3903 35.9478V41.8312H75.7803V40.4124H75.7103C75.5403 40.7498 74.7103 41.9998 72.5303 41.9998C70.8803 41.9998 69.5703 41.2756 69.5703 39.5394L69.5803 39.5294ZM75.6803 38.5671V37.6047C75.5603 37.7932 75.3403 37.9123 74.4703 38.0115L72.8003 38.2297C71.6903 38.3686 71.2903 38.7556 71.2903 39.4401C71.2903 40.2636 71.8803 40.6505 72.9603 40.6505C74.8303 40.6505 75.6803 39.4997 75.6803 38.5572V38.5671Z" fill="#1F1B1C"/>
<path d="M79.6197 39.5989V34.4001H78.1797V33.0508H79.6197V30.8384H81.3397V33.0508H83.0897V34.4001H81.3397V39.3112C81.3397 40.1743 81.6297 40.5613 82.5797 40.5613C82.7797 40.5613 82.9397 40.5613 83.2097 40.5315V41.8113C82.8897 41.8907 82.5097 41.9502 82.0997 41.9502C80.6197 41.9502 79.6197 41.3252 79.6197 39.6088V39.5989Z" fill="#1F1B1C"/>
<path d="M84.1797 30.5213C84.1797 29.9657 84.6597 29.5093 85.1997 29.5093C85.7397 29.5093 86.2197 29.9657 86.2197 30.5213C86.2197 31.0768 85.7397 31.5332 85.1997 31.5332C84.6597 31.5332 84.1797 31.0967 84.1797 30.5213ZM84.3497 33.0512H86.0697V41.8216H84.3497V33.0512Z" fill="#1F1B1C"/>
<path d="M87.2891 37.4362C87.2891 34.3011 89.3991 32.8823 91.5891 32.8823C93.7791 32.8823 95.9091 34.3011 95.9091 37.4362C95.9091 40.5713 93.7991 41.9901 91.5891 41.9901C89.3791 41.9901 87.2891 40.5713 87.2891 37.4362ZM94.2791 37.4362C94.2791 35.2734 93.0191 34.311 91.5891 34.311C90.1591 34.311 88.9191 35.2734 88.9191 37.4362C88.9191 39.599 90.1591 40.5515 91.5891 40.5515C93.0191 40.5515 94.2791 39.5891 94.2791 37.4362Z" fill="#1F1B1C"/>
<path d="M101.211 34.3208C99.8209 34.3208 98.8509 35.1839 98.8509 36.7515V41.8312H97.1309V33.0608H98.8509V34.8168H98.9009C99.0509 34.162 99.9009 32.8921 101.871 32.8921C103.601 32.8921 105.001 33.8842 105.001 36.3645V41.8312H103.281V36.7515C103.281 35.1839 102.601 34.3208 101.211 34.3208Z" fill="#1F1B1C"/>
<path d="M110.311 30.0151H118.041V31.5529H112.071V35.0948H117.531V36.4937H112.071V40.2837H118.211V41.8215H110.311V30.0151Z" fill="#1F1B1C"/>
<path d="M122.14 37.3864L119.13 33.0508H121.02L123.09 36.1363L125.18 33.0508H127.07L124.06 37.3864L127.19 41.8212H125.3L123.09 38.6365L120.88 41.8212H119.01L122.14 37.3864Z" fill="#1F1B1C"/>
<path d="M132.49 34.3208C131.1 34.3208 130.13 35.184 130.13 36.7515V41.8312H128.41V30.0249H130.13V34.8169H130.18C130.33 34.1621 131.18 32.8922 133.15 32.8922C134.88 32.8922 136.28 33.8843 136.28 36.3646V41.8312H134.56V36.7515C134.56 35.184 133.88 34.3208 132.49 34.3208Z" fill="#1F1B1C"/>
<path d="M137.76 30.5213C137.76 29.9657 138.24 29.5093 138.78 29.5093C139.32 29.5093 139.8 29.9657 139.8 30.5213C139.8 31.0768 139.32 31.5332 138.78 31.5332C138.24 31.5332 137.76 31.0967 137.76 30.5213ZM137.93 33.0512H139.65V41.8216H137.93V33.0512Z" fill="#1F1B1C"/>
<path d="M143.021 40.4424V41.8215H141.301V30.0151H143.021V34.4301C143.551 33.4677 144.671 32.8824 145.981 32.8824C147.951 32.8824 149.921 34.2515 149.921 37.4363C149.921 40.621 147.951 41.9901 145.981 41.9901C144.671 41.9901 143.551 41.4048 143.021 40.4424ZM148.291 37.4363C148.291 35.2933 147.001 34.3111 145.621 34.3111C144.241 34.3111 142.931 35.2933 142.931 37.4363C142.931 39.5793 144.261 40.5516 145.621 40.5516C146.981 40.5516 148.291 39.5693 148.291 37.4363Z" fill="#1F1B1C"/>
<path d="M150.971 30.5213C150.971 29.9657 151.451 29.5093 151.991 29.5093C152.531 29.5093 153.011 29.9657 153.011 30.5213C153.011 31.0768 152.531 31.5332 151.991 31.5332C151.451 31.5332 150.971 31.0967 150.971 30.5213ZM151.141 33.0512H152.861V41.8216H151.141V33.0512Z" fill="#1F1B1C"/>
<path d="M155.36 39.5989V34.4001H153.92V33.0508H155.36V30.8384H157.08V33.0508H158.83V34.4001H157.08V39.3112C157.08 40.1743 157.37 40.5613 158.32 40.5613C158.52 40.5613 158.68 40.5613 158.95 40.5315V41.8113C158.63 41.8907 158.25 41.9502 157.84 41.9502C156.36 41.9502 155.36 41.3252 155.36 39.6088V39.5989Z" fill="#1F1B1C"/>
<path d="M159.91 30.5213C159.91 29.9657 160.39 29.5093 160.93 29.5093C161.47 29.5093 161.95 29.9657 161.95 30.5213C161.95 31.0768 161.47 31.5332 160.93 31.5332C160.39 31.5332 159.91 31.0967 159.91 30.5213ZM160.08 33.0512H161.8V41.8216H160.08V33.0512Z" fill="#1F1B1C"/>
<path d="M163.02 37.4362C163.02 34.3011 165.13 32.8823 167.32 32.8823C169.51 32.8823 171.64 34.3011 171.64 37.4362C171.64 40.5713 169.53 41.9901 167.32 41.9901C165.11 41.9901 163.02 40.5713 163.02 37.4362ZM170.01 37.4362C170.01 35.2734 168.75 34.311 167.32 34.311C165.89 34.311 164.65 35.2734 164.65 37.4362C164.65 39.599 165.89 40.5515 167.32 40.5515C168.75 40.5515 170.01 39.5891 170.01 37.4362Z" fill="#1F1B1C"/>
<path d="M176.949 34.3208C175.559 34.3208 174.589 35.1839 174.589 36.7515V41.8312H172.869V33.0608H174.589V34.8168H174.639C174.789 34.162 175.639 32.8921 177.609 32.8921C179.339 32.8921 180.739 33.8842 180.739 36.3645V41.8312H179.019V36.7515C179.019 35.1839 178.339 34.3208 176.949 34.3208Z" fill="#1F1B1C"/>
</g>
<path d="M184.856 49.0263C184.574 49.0458 184.291 49.042 184.002 49.0189C182.98 48.9333 182.21 48.5913 181.881 48.4458L181.906 48.4558C180.22 47.7937 179.01 46.3078 178.723 44.5424C178.449 42.8388 179.075 41.1197 180.375 39.9763C181.512 38.8834 182.799 38.3242 184.223 38.288C184.676 38.2762 185.222 38.3206 185.811 38.4871C186.199 37.0664 187.249 35.8738 188.95 34.9219C189.115 34.8282 189.311 34.7246 189.512 34.5931C190.96 33.6666 192.782 33.5127 194.369 34.1856C195.955 34.8585 197.092 36.2634 197.4 37.9334L197.948 40.9021C198.215 42.3478 197.828 43.835 196.894 44.9765C195.993 46.0765 194.667 46.7558 193.239 46.8549L193.208 46.8571L193.093 46.8729C191.448 47.1084 190.192 46.8667 189.239 46.4122C188.87 46.9937 188.381 47.5053 187.792 47.9064C186.872 48.5771 185.886 48.9508 184.851 49.0227L184.856 49.0263Z" fill="white" stroke="#1F1B1C" stroke-miterlimit="10"/>
<path d="M143.069 14.5674C142.452 15.1842 141.558 15.5115 140.635 15.4141L138.407 15.1738C138.029 15.2497 137.641 15.2543 137.264 15.1847C137.429 15.8161 137.366 16.4888 137.069 17.0856C136.691 17.8411 135.985 18.3975 135.141 18.6018C135.094 18.6162 135.047 18.6327 135 18.6492C134.47 18.8337 133.227 19.2665 131.908 18.6203C131.096 18.2222 129.203 17.0779 129.171 15.0684C129.129 12.436 130.653 10.2735 133.055 9.56015C133.944 9.29595 135.754 8.76013 137.709 9.30354C139.385 8.75851 141.177 9.14373 142.827 10.4536C143.825 11.2436 144.16 12.5714 143.656 13.7148C143.514 14.038 143.315 14.3237 143.071 14.5652L143.069 14.5674Z" fill="white" stroke="#1F1B1C" stroke-miterlimit="10"/>
<path d="M184.212 31.4388C183.925 31.4388 183.635 31.3496 183.392 31.1661C183.366 31.1504 183.291 31.1058 183.239 31.077C182.903 30.8856 182.34 30.5632 182.104 29.8711C182.019 29.6168 181.89 29.3416 181.753 29.0506C181.274 28.0282 180.617 26.6283 181.282 24.8274C181.445 24.3817 181.82 24.0488 182.277 23.944L183.726 23.6136C184.302 23.4826 184.897 23.7316 185.21 24.2402L186.787 26.7935C186.994 27.129 187.054 27.5354 186.95 27.9155C186.655 29.0034 186.229 30.1411 185.114 31.1032C184.856 31.3261 184.535 31.4388 184.212 31.4388Z" fill="white" stroke="#1F1B1C" stroke-miterlimit="10"/>
<defs>
<clipPath id="clip0_5549_7545">
<rect width="157" height="29" fill="white" transform="translate(24 13)"/>
</clipPath>
</defs>
</svg>
