<svg width="191" height="57" viewBox="0 0 191 57" fill="none" xmlns="http://www.w3.org/2000/svg">
<g clip-path="url(#clip0_3441_12819)">
<path d="M16.0002 22.3835H17.8002C17.8702 23.6435 18.7202 24.6456 20.6902 24.6456C22.4602 24.6456 23.3802 23.8717 23.3802 22.6514C23.3802 21.4311 22.5502 20.9945 21.2402 20.7465L19.6402 20.429C17.6102 20.0222 16.3402 19.0797 16.3402 17.2542C16.3402 15.2104 17.9202 14 20.6102 14C23.3002 14 24.8902 15.2302 24.8902 17.3038H23.0902C23.0702 16.1926 22.2102 15.4783 20.5702 15.4783C18.8502 15.4783 18.1702 16.272 18.1702 17.2542C18.1702 18.0777 18.6802 18.7225 20.0902 19.0103L21.6202 19.3178C24.0002 19.794 25.2202 20.7465 25.2202 22.6414C25.2202 24.9333 23.4002 26.1337 20.6602 26.1337C17.6502 26.1337 15.9902 24.6654 15.9902 22.3934L16.0002 22.3835Z" fill="#1F1B1C"/>
<path d="M26.3694 22.3835H28.1694C28.2394 23.6435 29.0894 24.6456 31.0594 24.6456C32.8294 24.6456 33.7494 23.8717 33.7494 22.6514C33.7494 21.4311 32.9194 20.9945 31.6094 20.7465L30.0094 20.429C27.9894 20.0222 26.7094 19.0797 26.7094 17.2542C26.7094 15.2104 28.2894 14 30.9794 14C33.6694 14 35.2594 15.2302 35.2594 17.3038H33.4594C33.4394 16.1926 32.5794 15.4783 30.9394 15.4783C29.2194 15.4783 28.5394 16.272 28.5394 17.2542C28.5394 18.0777 29.0494 18.7225 30.4594 19.0103L31.9894 19.3178C34.3694 19.794 35.5894 20.7465 35.5894 22.6414C35.5894 24.9333 33.7694 26.1337 31.0294 26.1337C28.0194 26.1337 26.3594 24.6654 26.3594 22.3934L26.3694 22.3835Z" fill="#1F1B1C"/>
<path d="M36.1504 14.1484H37.9504L40.3004 23.4943H40.3804L43.1504 14.1484H45.0004L47.7504 23.4943H47.8304L50.1904 14.1484H51.9904L48.8504 25.9548H46.9804L44.0704 16.3807L41.1604 25.9548H39.3104L36.1504 14.1484Z" fill="#1F1B1C"/>
<path d="M53.1309 21.4902V14.1484H54.9009V21.3711C54.9009 23.4645 55.9909 24.5956 57.8109 24.5956C59.6309 24.5956 60.7209 23.4645 60.7209 21.3711V14.1484H62.5109V21.4803C62.5109 24.5162 60.6409 26.1135 57.8209 26.1135C55.0009 26.1135 53.1509 24.5162 53.1509 21.4803L53.1309 21.4902Z" fill="#1F1B1C"/>
<path d="M67.7793 14.1484H71.8393C75.5793 14.1484 77.4693 16.2716 77.4693 20.0516C77.4693 23.8316 75.5793 25.9548 71.8393 25.9548H67.7793V14.1484ZM75.6693 20.0516C75.6693 17.0653 74.4993 15.6862 71.6793 15.6862H69.5593V24.4269H71.6793C74.4993 24.4269 75.6693 23.028 75.6693 20.0615V20.0516Z" fill="#1F1B1C"/>
<path d="M78.8496 14.1484H86.5796V15.6862H80.6096V19.2281H86.0696V20.627H80.6096V24.417H86.7496V25.9548H78.8496V14.1484Z" fill="#1F1B1C"/>
<path d="M87.7209 22.3835H89.5209C89.5909 23.6435 90.4409 24.6456 92.4109 24.6456C94.1809 24.6456 95.1009 23.8717 95.1009 22.6514C95.1009 21.4311 94.2709 20.9945 92.9609 20.7465L91.3609 20.429C89.3409 20.0222 88.0609 19.0797 88.0609 17.2542C88.0609 15.2104 89.6409 14 92.3309 14C95.0209 14 96.6109 15.2302 96.6109 17.3038H94.8109C94.7909 16.1926 93.9309 15.4783 92.2909 15.4783C90.5709 15.4783 89.8909 16.272 89.8909 17.2542C89.8909 18.0777 90.4009 18.7225 91.8109 19.0103L93.3409 19.3178C95.7209 19.794 96.9409 20.7465 96.9409 22.6414C96.9409 24.9333 95.1209 26.1337 92.3809 26.1337C89.3709 26.1337 87.7109 24.6654 87.7109 22.3934L87.7209 22.3835Z" fill="#1F1B1C"/>
<path d="M98.3496 14.1484H100.12V25.9548H98.3496V14.1484Z" fill="#1F1B1C"/>
<path d="M101.49 20.0917C101.49 16.1331 103.68 14 106.91 14C109.27 14 111.16 15.131 111.6 17.403H109.85C109.42 16.0835 108.3 15.518 106.91 15.518C104.53 15.518 103.26 17.2046 103.26 20.0421C103.26 22.8796 104.57 24.6158 106.95 24.6158C108.77 24.6158 110.21 23.6038 110.2 21.1929H107.45V19.7742H111.95V20.7167C111.95 24.2785 110.08 26.1337 106.94 26.1337C103.57 26.1337 101.5 23.9709 101.5 20.0917H101.49Z" fill="#1F1B1C"/>
<path d="M113.43 14.1484H115.33L121.14 23.2066H121.19V14.1484H122.96V25.9548H120.99L115.23 16.9859H115.2V25.9548H113.43V14.1484Z" fill="#1F1B1C"/>
<path d="M16 36.9579C16 32.9993 18.19 30.8662 21.42 30.8662C23.78 30.8662 25.67 31.9972 26.11 34.2692H24.36C23.93 32.9497 22.81 32.3842 21.42 32.3842C19.04 32.3842 17.77 34.0708 17.77 36.9083C17.77 39.7458 19.08 41.482 21.46 41.482C23.28 41.482 24.72 40.47 24.71 38.0592H21.96V36.6404H26.46V37.5829C26.46 41.1447 24.59 43 21.45 43C18.08 43 16.01 40.8371 16.01 36.9579H16Z" fill="#1F1B1C"/>
<path d="M27.9299 34.0514H29.6499V36.0753H29.6999C29.9499 35.0435 30.7899 33.9521 32.3999 33.9521C32.6199 33.9521 32.8599 33.972 33.0599 34.0315V35.4602C32.8399 35.4304 32.6399 35.4106 32.4099 35.4106C30.7599 35.4106 29.6399 36.4722 29.6399 38.4267V42.8119H27.9199V34.0414L27.9299 34.0514Z" fill="#1F1B1C"/>
<path d="M33.2698 40.5299C33.2698 38.8433 34.5098 38.1488 36.0898 37.9702L38.2798 37.7222C39.0998 37.623 39.3698 37.4742 39.3698 37.1964V36.9583C39.3698 35.5594 38.6398 35.1923 37.3998 35.1923C36.1598 35.1923 35.4098 35.5594 35.4098 36.6805V36.8789H33.7598V36.5217C33.7598 34.7657 34.9998 33.8926 37.4298 33.8926C39.8598 33.8926 41.0798 34.8252 41.0798 36.9483V42.8317H39.4698V41.4129H39.3998C39.2298 41.7502 38.3998 43.0003 36.2198 43.0003C34.5698 43.0003 33.2598 42.2761 33.2598 40.5398L33.2698 40.5299ZM39.3698 39.5676V38.6052C39.2498 38.7937 39.0298 38.9128 38.1598 39.012L36.4898 39.2302C35.3798 39.3691 34.9798 39.7561 34.9798 40.4406C34.9798 41.2641 35.5698 41.651 36.6498 41.651C38.5198 41.651 39.3698 40.5002 39.3698 39.5576V39.5676Z" fill="#1F1B1C"/>
<path d="M42.2109 38.4358C42.2109 35.251 44.1809 33.8819 46.1509 33.8819C47.4609 33.8819 48.5809 34.4772 49.1109 35.4296V31.0146H50.8309V42.821H49.1109V41.4419C48.5809 42.4043 47.4609 42.9897 46.1509 42.9897C44.1809 42.9897 42.2109 41.6106 42.2109 38.4358ZM49.2009 38.4358C49.2009 36.2928 47.8709 35.3106 46.5109 35.3106C45.1509 35.3106 43.8409 36.2928 43.8409 38.4358C43.8409 40.5788 45.1309 41.5511 46.5109 41.5511C47.8909 41.5511 49.2009 40.5689 49.2009 38.4358Z" fill="#1F1B1C"/>
<path d="M56.2705 41.5612C57.6605 41.5612 58.6305 40.6981 58.6305 39.1305V34.0508H60.3505V42.8212H58.6305V41.0651H58.5805C58.4305 41.7199 57.5805 42.9899 55.6105 42.9899C53.8805 42.9899 52.4805 41.9977 52.4805 39.5174V34.0508H54.2005V39.1305C54.2005 40.6981 54.8805 41.5612 56.2705 41.5612Z" fill="#1F1B1C"/>
<path d="M61.5803 40.5299C61.5803 38.8433 62.8203 38.1488 64.4003 37.9702L66.5903 37.7222C67.4103 37.623 67.6803 37.4742 67.6803 37.1964V36.9583C67.6803 35.5594 66.9503 35.1923 65.7103 35.1923C64.4703 35.1923 63.7203 35.5594 63.7203 36.6805V36.8789H62.0703V36.5217C62.0703 34.7657 63.3103 33.8926 65.7403 33.8926C68.1703 33.8926 69.3903 34.8252 69.3903 36.9483V42.8317H67.7803V41.4129H67.7103C67.5403 41.7502 66.7103 43.0003 64.5303 43.0003C62.8803 43.0003 61.5703 42.2761 61.5703 40.5398L61.5803 40.5299ZM67.6803 39.5676V38.6052C67.5603 38.7937 67.3403 38.9128 66.4703 39.012L64.8003 39.2302C63.6903 39.3691 63.2903 39.7561 63.2903 40.4406C63.2903 41.2641 63.8803 41.651 64.9603 41.651C66.8303 41.651 67.6803 40.5002 67.6803 39.5576V39.5676Z" fill="#1F1B1C"/>
<path d="M71.6197 40.5994V35.4006H70.1797V34.0513H71.6197V31.8389H73.3397V34.0513H75.0897V35.4006H73.3397V40.3117C73.3397 41.1748 73.6297 41.5617 74.5797 41.5617C74.7797 41.5617 74.9397 41.5617 75.2097 41.532V42.8118C74.8897 42.8912 74.5097 42.9507 74.0997 42.9507C72.6197 42.9507 71.6197 42.3257 71.6197 40.6093V40.5994Z" fill="#1F1B1C"/>
<path d="M76.1797 31.5208C76.1797 30.9652 76.6597 30.5088 77.1997 30.5088C77.7397 30.5088 78.2197 30.9652 78.2197 31.5208C78.2197 32.0764 77.7397 32.5327 77.1997 32.5327C76.6597 32.5327 76.1797 32.0962 76.1797 31.5208ZM76.3497 34.0507H78.0697V42.8211H76.3497V34.0507Z" fill="#1F1B1C"/>
<path d="M79.2891 38.4357C79.2891 35.3006 81.3991 33.8818 83.5891 33.8818C85.7791 33.8818 87.9091 35.3006 87.9091 38.4357C87.9091 41.5708 85.7991 42.9896 83.5891 42.9896C81.3791 42.9896 79.2891 41.5708 79.2891 38.4357ZM86.2791 38.4357C86.2791 36.2729 85.0191 35.3105 83.5891 35.3105C82.1591 35.3105 80.9191 36.2729 80.9191 38.4357C80.9191 40.5986 82.1591 41.551 83.5891 41.551C85.0191 41.551 86.2791 40.5886 86.2791 38.4357Z" fill="#1F1B1C"/>
<path d="M93.2109 35.3212C91.8209 35.3212 90.8509 36.1844 90.8509 37.752V42.8317H89.1309V34.0612H90.8509V35.8173H90.9009C91.0509 35.1625 91.9009 33.8926 93.8709 33.8926C95.6009 33.8926 97.0009 34.8847 97.0009 37.365V42.8317H95.2809V37.752C95.2809 36.1844 94.6009 35.3212 93.2109 35.3212Z" fill="#1F1B1C"/>
<path d="M102.311 31.0146H110.041V32.5525H104.071V36.0944H109.531V37.4933H104.071V41.2832H110.211V42.821H102.311V31.0146Z" fill="#1F1B1C"/>
<path d="M114.14 38.3864L111.13 34.0508H113.02L115.09 37.1363L117.18 34.0508H119.07L116.06 38.3864L119.19 42.8212H117.3L115.09 39.6365L112.88 42.8212H111.01L114.14 38.3864Z" fill="#1F1B1C"/>
<path d="M124.49 35.3213C123.1 35.3213 122.13 36.1845 122.13 37.752V42.8317H120.41V31.0254H122.13V35.8174H122.18C122.33 35.1626 123.18 33.8926 125.15 33.8926C126.88 33.8926 128.28 34.8848 128.28 37.3651V42.8317H126.56V37.752C126.56 36.1845 125.88 35.3213 124.49 35.3213Z" fill="#1F1B1C"/>
<path d="M129.76 31.5208C129.76 30.9652 130.24 30.5088 130.78 30.5088C131.32 30.5088 131.8 30.9652 131.8 31.5208C131.8 32.0764 131.32 32.5327 130.78 32.5327C130.24 32.5327 129.76 32.0962 129.76 31.5208ZM129.93 34.0507H131.65V42.8211H129.93V34.0507Z" fill="#1F1B1C"/>
<path d="M135.021 41.4419V42.821H133.301V31.0146H135.021V35.4296C135.551 34.4673 136.671 33.8819 137.981 33.8819C139.951 33.8819 141.921 35.251 141.921 38.4358C141.921 41.6205 139.951 42.9897 137.981 42.9897C136.671 42.9897 135.551 42.4043 135.021 41.4419ZM140.291 38.4358C140.291 36.2928 139.001 35.3106 137.621 35.3106C136.241 35.3106 134.931 36.2928 134.931 38.4358C134.931 40.5788 136.261 41.5511 137.621 41.5511C138.981 41.5511 140.291 40.5689 140.291 38.4358Z" fill="#1F1B1C"/>
<path d="M142.971 31.5208C142.971 30.9652 143.451 30.5088 143.991 30.5088C144.531 30.5088 145.011 30.9652 145.011 31.5208C145.011 32.0764 144.531 32.5327 143.991 32.5327C143.451 32.5327 142.971 32.0962 142.971 31.5208ZM143.141 34.0507H144.861V42.8211H143.141V34.0507Z" fill="#1F1B1C"/>
<path d="M147.36 40.5994V35.4006H145.92V34.0513H147.36V31.8389H149.08V34.0513H150.83V35.4006H149.08V40.3117C149.08 41.1748 149.37 41.5617 150.32 41.5617C150.52 41.5617 150.68 41.5617 150.95 41.532V42.8118C150.63 42.8912 150.25 42.9507 149.84 42.9507C148.36 42.9507 147.36 42.3257 147.36 40.6093V40.5994Z" fill="#1F1B1C"/>
<path d="M151.91 31.5208C151.91 30.9652 152.39 30.5088 152.93 30.5088C153.47 30.5088 153.95 30.9652 153.95 31.5208C153.95 32.0764 153.47 32.5327 152.93 32.5327C152.39 32.5327 151.91 32.0962 151.91 31.5208ZM152.08 34.0507H153.8V42.8211H152.08V34.0507Z" fill="#1F1B1C"/>
<path d="M155.02 38.4357C155.02 35.3006 157.13 33.8818 159.32 33.8818C161.51 33.8818 163.64 35.3006 163.64 38.4357C163.64 41.5708 161.53 42.9896 159.32 42.9896C157.11 42.9896 155.02 41.5708 155.02 38.4357ZM162.01 38.4357C162.01 36.2729 160.75 35.3105 159.32 35.3105C157.89 35.3105 156.65 36.2729 156.65 38.4357C156.65 40.5986 157.89 41.551 159.32 41.551C160.75 41.551 162.01 40.5886 162.01 38.4357Z" fill="#1F1B1C"/>
<path d="M168.949 35.3212C167.559 35.3212 166.589 36.1844 166.589 37.752V42.8317H164.869V34.0612H166.589V35.8173H166.639C166.789 35.1625 167.639 33.8926 169.609 33.8926C171.339 33.8926 172.739 34.8847 172.739 37.365V42.8317H171.019V37.752C171.019 36.1844 170.339 35.3212 168.949 35.3212Z" fill="#1F1B1C"/>
</g>
<path d="M176.856 49.9013C176.574 49.9212 176.291 49.9173 176.002 49.8938C174.98 49.8066 174.21 49.4585 173.881 49.3104L173.906 49.3206C172.22 48.6467 171.01 47.1342 170.723 45.3373C170.449 43.6033 171.075 41.8535 172.375 40.6897C173.512 39.5772 174.799 39.0081 176.223 38.9713C176.676 38.9592 177.222 39.0044 177.811 39.1739C178.199 37.7278 179.249 36.5139 180.95 35.545C181.115 35.4497 181.311 35.3442 181.512 35.2104C182.96 34.2673 184.782 34.1107 186.369 34.7956C187.955 35.4805 189.092 36.9105 189.4 38.6103L189.948 41.632C190.215 43.1035 189.828 44.6173 188.894 45.7792C187.993 46.8989 186.667 47.5903 185.239 47.6911L185.208 47.6934L185.093 47.7094C183.448 47.9491 182.192 47.7032 181.239 47.2405C180.87 47.8324 180.381 48.3532 179.792 48.7614C178.872 49.444 177.886 49.8245 176.851 49.8976L176.856 49.9013Z" fill="white" stroke="#1F1B1C" stroke-miterlimit="10"/>
<path d="M135.069 14.8274C134.452 15.4552 133.558 15.7883 132.635 15.6892L130.407 15.4446C130.029 15.5218 129.641 15.5265 129.264 15.4557C129.429 16.0983 129.366 16.7831 129.069 17.3905C128.691 18.1595 127.985 18.7259 127.141 18.9338C127.094 18.9484 127.047 18.9652 127 18.9821C126.47 19.1698 125.227 19.6104 123.908 18.9526C123.096 18.5475 121.203 17.3826 121.171 15.3372C121.129 12.6579 122.653 10.4568 125.055 9.73069C125.944 9.46176 127.754 8.91637 129.709 9.46949C131.385 8.91473 133.177 9.30683 134.827 10.6401C135.825 11.4442 136.16 12.7957 135.656 13.9595C135.514 14.2885 135.315 14.5793 135.071 14.8251L135.069 14.8274Z" fill="white" stroke="#1F1B1C" stroke-miterlimit="10"/>
<path d="M176.212 32C175.925 32 175.635 31.9093 175.392 31.7225C175.366 31.7065 175.291 31.6611 175.239 31.6318C174.903 31.437 174.34 31.1088 174.104 30.4044C174.019 30.1455 173.89 29.8654 173.753 29.5692C173.274 28.5286 172.617 27.1037 173.282 25.2706C173.445 24.817 173.82 24.4781 174.277 24.3714L175.726 24.0352C176.302 23.9017 176.897 24.1552 177.21 24.6729L178.787 27.2718C178.994 27.6133 179.054 28.0269 178.95 28.4138C178.655 29.5212 178.229 30.6792 177.114 31.6585C176.856 31.8853 176.535 32 176.212 32Z" fill="white" stroke="#1F1B1C" stroke-miterlimit="10"/>
<defs>
<clipPath id="clip0_3441_12819">
<rect width="157" height="29" fill="white" transform="translate(16 14)"/>
</clipPath>
</defs>
</svg>
