<svg width="48" height="48" viewBox="0 0 48 48" fill="none" xmlns="http://www.w3.org/2000/svg">
<g clip-path="url(#clip0_3441_12698)">
<path d="M38.1748 6.33155C36.8293 5.57356 35.3054 5.36788 34.049 5.77691C28.6495 6.37016 21.2848 8.30977 15.0314 4.25157C13.6914 3.38196 12.1099 3.07832 10.7787 3.43494C9.44427 3.78928 8.52343 4.76439 8.28676 6.05725C8.15266 6.80231 7.97842 7.54238 7.81722 8.25691C7.17207 11.0532 6.51128 13.3485 8.01074 17.2434C8.82421 19.349 8.51273 21.3437 7.74588 23.8777C7.11155 25.9735 6.88076 27.867 7.03318 29.6634C7.2079 31.7255 7.57709 33.8008 7.93294 35.8052C8.08221 36.6372 8.234 37.4863 8.37312 38.3536C8.6932 40.3329 10.4091 42.1471 12.5402 42.7666L20.4976 44.1878C21.7099 44.5408 22.9231 44.4633 23.8824 43.9731C26.0252 42.8804 28.4977 42.2084 31.1933 41.503C34.6916 40.5865 38.2375 41.3905 41.2924 39.3973C41.6486 39.1658 41.9488 38.8758 42.1803 38.5454C42.6487 37.8768 42.8534 37.031 42.7432 36.1225C42.5642 34.6269 42.3571 33.1925 42.1593 31.8069C41.7471 28.9279 41.4321 25.3383 41.4 22.8372C41.3457 18.4231 42.0514 13.4776 40.9264 9.66422C40.533 8.32248 39.5135 7.09239 38.168 6.3344L38.1748 6.33155ZM32.0016 21.0669C32.037 24.0822 32.4647 27.0568 32.9144 30.2007C32.9965 30.7893 33.0834 31.3852 33.168 31.991C31.3522 32.7971 29.1898 33.3641 26.9338 33.9541C24.4988 34.5919 21.9922 35.2489 19.5957 36.2677L17.0916 35.537C16.7989 33.8924 16.5375 32.3276 16.4131 30.8511C16.3441 30.0291 16.4921 29.0013 16.8592 27.7921C17.886 24.3819 18.5917 20.5926 16.8146 15.9798C16.4997 15.1627 16.473 14.3357 16.6213 13.3004C21.6599 15.5837 27.4868 15.622 32.305 15.1607C32.639 16.8226 31.9865 19.386 32.0066 21.0666L32.0016 21.0669Z" fill="white" stroke="#1F1B1C" stroke-miterlimit="10"/>
<path d="M28.3732 18.3306C28.1478 18.3306 27.9183 18.2986 27.6889 18.2266L26.9253 17.9946C26.2035 17.7745 25.6485 17.2225 25.4441 16.5265C25.4399 16.5065 25.4316 16.4865 25.4274 16.4665C25.4107 16.3985 25.394 16.3345 25.3815 16.2625C25.2521 15.5105 25.5484 14.7465 26.1534 14.2584C26.1993 14.2104 26.241 14.1625 26.2827 14.1144L26.3036 14.0824C26.3328 14.0424 26.3578 14.0064 26.387 13.9664C27.0546 13.0744 28.3147 12.8024 29.312 13.3384C30.0922 13.7584 30.5178 14.5625 30.4594 15.3745C30.6472 15.8305 30.6763 16.3505 30.5011 16.8545C30.184 17.7545 29.3727 18.3306 28.4297 18.3306H28.3732Z" fill="white" stroke="#1F1B1C" stroke-miterlimit="10"/>
<path d="M27.375 27.9633C27.1213 28.6915 26.6897 29.367 26.0801 29.9238L25.6452 30.3192C23.7539 32.0457 20.8379 31.9798 19.0224 30.1709L16.3535 27.5053C15.4243 26.5762 14.9169 25.3076 14.9465 23.9929C14.9795 22.6782 15.5495 21.436 16.5248 20.5563L17.1673 19.9731C18.1262 19.1065 19.3914 18.6617 20.683 18.7441C21.9713 18.8232 23.174 19.4195 24.0175 20.3981L26.4755 23.2483C27.632 24.5893 27.9187 26.3949 27.3717 27.96L27.375 27.9633Z" fill="white" stroke="#1F1B1C" stroke-miterlimit="10"/>
</g>
<defs>
<clipPath id="clip0_3441_12698">
<rect width="48" height="48" fill="white"/>
</clipPath>
</defs>
</svg>
