<svg width="306" height="357" viewBox="0 0 306 357" fill="none" xmlns="http://www.w3.org/2000/svg">
<path d="M214.709 183.326C213.065 186.094 211.546 188.779 209.103 190.937C207.022 192.776 204.746 193.83 203.095 196.113C199.002 201.761 194.991 205.84 187.526 205.625C183.953 205.521 181.212 201.664 181.746 198.319C182.364 194.448 186.027 192.665 189.593 192.762C189.593 192.762 189.92 191.596 190.537 190.75C191.432 189.522 192.216 188.21 193.18 187.031C195.283 184.457 198.453 183.187 200.528 180.745C202.491 178.435 203.539 175.403 205.454 173.023C207.813 170.088 210.9 168.111 214.689 167.903C221.495 167.528 228.634 173.294 233.22 177.789C237.806 182.285 241.22 187.864 243.177 193.907C245.799 202.017 232.964 206.888 230.41 198.992C228.856 194.17 226.4 189.765 222.709 186.233C220.933 184.533 218.067 183.153 215.903 181.994L214.716 183.319L214.709 183.326Z" fill="#FF885F" stroke="#231F20" stroke-width="1.6" stroke-linecap="round" stroke-linejoin="round"/>
<path d="M267.098 293.205C266.661 283.52 259.799 275.215 250.218 273.952C250.468 272.405 250.454 270.76 250.142 269.074C250.142 269.074 249.538 263.989 249.496 262.671C249.413 259.916 249.552 257.176 249.822 254.435C250.398 248.676 244.584 243.154 239.013 242.987C239.568 241.405 239.845 239.712 239.769 237.971C239.387 229.513 232.907 222.36 224.158 222.36C217.206 222.36 210.511 227.564 208.901 234.308C203.476 235.196 198.557 239.109 196.559 244.208C195.122 246.539 194.317 249.238 194.442 252.076C194.824 260.534 201.304 267.687 210.053 267.687C216.353 267.687 222.438 263.413 224.727 257.592C225.525 256.294 226.129 254.879 226.49 253.387C226.691 253.353 226.892 253.318 227.093 253.276C227.031 253.658 226.975 254.046 226.934 254.442C226.233 261.429 226.802 268.27 228.064 275.173C228.529 277.705 230.181 279.863 232.338 281.369C229.653 284.678 228.044 288.813 228.245 293.226C228.717 303.751 236.779 312.653 247.672 312.653C257.836 312.653 267.57 303.716 267.098 293.226V293.205Z" fill="white" stroke="#231F20" stroke-width="1.6" stroke-miterlimit="10"/>
<path d="M184.215 303.932C192.381 303.932 200.2 296.751 199.825 288.321C199.444 279.864 192.963 272.71 184.215 272.71C176.048 272.71 168.229 279.891 168.604 288.321C168.978 296.751 175.466 303.932 184.215 303.932Z" fill="white" stroke="#231F20" stroke-width="1.6" stroke-miterlimit="10"/>
<path d="M156.753 57.2338L171.178 60.3351L179.83 69.4032L182.3 92.8888L193.838 121.321V131.215L203.315 161.292L197.14 166.239H185.602L186.837 178.186L183.542 183.403L188.898 201.262L183.125 219.391L191.777 240.823L210.323 278.317L227.626 310.871L239.164 337.652V346.72L232.573 348.78H226.808L221.861 353.311L192.159 354.268L197.369 348.656L207.436 346.31V327.765L200.436 307.984L190.133 284.499L182.3 277.908L163.761 242.468L154.284 269.665L147.692 289.446L132.65 322.568L131.582 333.766L132.442 350.425H127.086L121.383 347.802L109.019 348.378L88.7461 343.292L101.949 338.477V331.477L115.548 296.446L127.912 261.423L145.632 215.686L140.622 210.323L125.615 206.938L127.815 198.057L127.502 186.761L123.381 183.403L106.071 193.845L100.714 204.974L94.5325 203.566L90.8275 195.413L98.3762 187.552L107.743 183.403L128.897 164.289L127.683 158.849L134.635 156.435L138.263 150.995L144.605 130.452L148.837 114.744L155.782 106.585L154.575 102.658L148.532 98.7306L143.398 97.8218L140.983 88.7606L138.562 85.7356L142.489 77.278L142.794 68.8204L153.971 57.0326L156.753 57.2338Z" fill="#FABEE8" stroke="#231F20" stroke-width="1.6" stroke-linecap="round" stroke-linejoin="round"/>
<path d="M254.22 210.236C243.056 210.236 243.042 227.581 254.22 227.581C265.397 227.581 265.397 210.236 254.22 210.236Z" fill="white" stroke="#231F20" stroke-width="1.6" stroke-miterlimit="10"/>
<path d="M167.334 281.294C165.031 281.294 162.748 281.759 160.597 282.592C164.385 277.173 164.628 269.375 161.249 263.685C158.231 255.63 150.287 248.595 141.233 250.558L140.817 250.059C143.328 244.189 143.668 233.872 141.184 227.885C138.555 218.359 127.426 212.649 118.42 216.881C111.427 193.909 87.4001 198.911 83.82 222.223C81.5998 229.05 83.5564 232.339 86.7479 236.759C86.7479 236.759 74.5507 236.682 72.0322 250.114C69.7773 262.152 65.552 273.961 64.6084 286.38C42.6354 300.52 67.6542 336.563 84.84 311.836C97.2106 305.723 92.5204 290.293 95.3581 278.908C96.5862 272.143 98.3901 265.559 100.638 259.155C102.789 253.035 101.485 246.463 96.9893 242.217C100.632 243.799 103.614 242.933 107.333 241.303C107.084 251.78 116.124 263.297 127.232 261.056C125.379 266.183 125.421 272.115 128.314 276.861C131.284 284.708 138.805 291.59 147.672 290.113C144.202 294.504 145.091 301.352 148.636 305.356C154.207 327.329 186.574 323.36 186.768 300.721C186.296 290.196 178.234 281.294 167.341 281.294H167.334Z" fill="white" stroke="#231F20" stroke-width="1.6" stroke-miterlimit="10"/>
<path d="M107.001 109.53C102.373 109.53 99.7436 112.638 99.1122 116.17C86.8664 117.62 86.4224 132.273 88.927 141.695C90.4673 148.238 98.2935 152.74 104.718 150.659C111.955 148.369 114.314 140.883 114.591 135.069C114.758 131.635 114.418 127.298 112.676 123.947C117.151 119.41 115.271 109.53 107.001 109.53Z" fill="white" stroke="#231F20" stroke-width="1.6" stroke-miterlimit="10"/>
<path opacity="0.98" d="M204.557 49C195.538 49 194.101 60.7948 200.269 64.5275C196.308 65.7972 196.745 72.652 201.615 72.652C205.626 72.652 206.638 67.9896 204.647 65.6445C215.27 65.5474 215.256 49 204.557 49Z" fill="white" stroke="#231F20" stroke-width="1.6" stroke-miterlimit="10"/>
<path d="M167.099 211.101C164.518 210.657 161.028 212.322 160.8 215.257C160.737 216.055 160.633 216.763 160.473 217.408C159.682 217.214 151.426 207.667 150.51 204.78C148.415 198.162 140.277 190.356 137.675 188.67C130.452 183.994 121.329 169.854 116.944 167.738C112.517 165.608 107.341 166.545 103.914 170.034C100.917 173.087 99.8343 177.264 99.2376 181.385C98.1206 189.121 110.699 189.558 111.789 182.051C111.809 181.885 112.136 180.851 112.476 179.824C112.58 179.928 112.67 180.018 112.718 180.088C116.007 184.382 119.934 191.293 123.021 194.29C124.694 195.914 130.744 200.618 134.913 204.989C136.988 207.16 137.03 212.024 141.456 216.776C142.545 217.949 151.051 224.984 151.051 224.984C150.996 230.056 158.621 230.653 158.621 230.653C160.876 233.49 166.44 231.312 168.966 228.897C172.171 225.831 171.283 221.543 171.63 217.123C171.859 214.202 170.076 211.608 167.092 211.094L167.099 211.101Z" fill="#FF885F" stroke="#231F20" stroke-width="1.6" stroke-linecap="round" stroke-linejoin="round"/>
<path d="M118.143 189.258L106.071 193.872L100.715 205.001L94.5331 203.599L90.8281 195.44L98.3768 187.586L112.503 181.203" fill="#FABEE8"/>
<path d="M118.143 189.258L106.071 193.872L100.715 205.001L94.5331 203.599L90.8281 195.44L98.3768 187.586L112.503 181.203" stroke="#231F20" stroke-width="1.6" stroke-linecap="round" stroke-linejoin="round"/>
</svg>
