<svg width="306" height="357" viewBox="0 0 306 357" fill="none" xmlns="http://www.w3.org/2000/svg">
<path d="M125.661 219.046C132.918 219.046 139.87 212.663 139.537 205.17C139.197 197.649 133.439 191.294 125.661 191.294C118.404 191.294 111.452 197.677 111.785 205.17C112.125 212.691 117.884 219.046 125.661 219.046Z" fill="white" stroke="#231F20" stroke-width="1.6" stroke-miterlimit="10"/>
<path d="M229.724 182.262L206.614 151.797L192.952 143.603L170.466 137.297L163.535 138.136L158.283 127.84L157.235 123.004L147.57 114.602L136.434 111.868L122.357 121.047L117.105 132.461L115.44 144.047L122.385 157.056L129.08 161.663L130.364 166.811L134.749 165.424L138.322 168.386L139.161 171.12V185.621L126.131 212.096L128.13 224.287L117.098 225.126L102.812 223.024L95.458 225.126L70.9457 219.451L69.6829 222.184L74.5187 230.802L87.2641 231.648L102.812 243.623H105.754L99.4474 286.91L95.6661 308.55L101.55 311.069L99.6555 315.689L95.4511 319.471H91.6698L70.4461 335.019L57 338.592V341.534L65.6172 344.268L104.7 345.107L104.068 349.312L113.102 352.045L139.154 350.997L152.815 348.056V333.347L150.297 325.784L155.341 327.047L164.166 279.563V265.277L167.739 259.817L185.813 262.335L236.454 260.441L245.911 250.145V223.461L229.731 182.276L229.724 182.262ZM123.419 331.293L117.223 338.627L115.197 323.453L113.553 322.315L115.197 314.219H120.13L119.748 317.632L133.201 322.565L123.412 331.293H123.419ZM162.501 210.945L158.366 212.624L147.633 217.543L150.089 205.248L156.451 192.795L163.389 203.347L162.494 210.952L162.501 210.945Z" fill="#FABEE8" stroke="#231F20" stroke-width="1.6" stroke-linecap="round" stroke-linejoin="round"/>
<path d="M232.104 99.2855C231.23 84.5004 209.833 86.2418 211.463 100.749C204.921 95.4348 194.472 100.541 194.701 108.964C194.604 114.001 198.621 117.227 201.896 120.468C205.309 123.895 210.895 124.499 214.995 121.8C222.689 124.034 230.633 115.528 227.164 108.048C230.148 106.175 232.264 102.907 232.104 99.2855Z" fill="white" stroke="#231F20" stroke-width="1.6" stroke-miterlimit="10"/>
<path d="M95.4181 317.232C94.5231 317.232 93.7114 317.357 92.969 317.579C92.1017 311.799 87.4462 307.144 81.3129 307.144C75.1796 307.144 69.2337 312.57 69.5181 318.939C69.8026 325.329 74.7009 330.734 81.3129 330.734C83.8106 330.734 86.2598 329.832 88.2788 328.354C89.2918 331.053 91.6646 333.19 95.4181 333.19C105.686 333.19 105.7 317.232 95.4181 317.232Z" fill="white" stroke="#231F20" stroke-width="1.6" stroke-miterlimit="10"/>
<path d="M102.867 154.668C101.722 151.137 98.371 149.256 94.7562 150.061C92.654 150.533 90.5518 150.998 88.4495 151.47C85.0776 152.219 82.788 156.305 83.8426 159.58C84.9874 163.112 88.3384 164.992 91.9532 164.187C94.0555 163.715 96.1578 163.251 98.26 162.779C101.632 162.029 103.921 157.943 102.867 154.668Z" fill="white" stroke="#231F20" stroke-width="1.6" stroke-miterlimit="10"/>
<path d="M165.547 222.057C158.283 222.39 151.914 222.259 145.052 219.761C141.444 218.443 138.142 218.401 134.367 218.762C132.466 218.942 130.6 219.012 128.692 218.866C128.616 218.866 128.532 218.852 128.456 218.838C128.47 217.818 128.248 216.805 127.762 215.959C126.035 212.927 122.552 212.309 119.52 213.433C114.392 215.327 113.546 222.217 116.925 226.068C120.581 230.23 127.36 230.661 132.508 230.446C135.179 230.335 137.92 229.564 140.528 230.293C143.137 231.021 145.524 232.215 148.216 232.763C153.926 233.929 159.629 233.838 165.415 233.575C168.544 233.429 171.507 231.514 171.556 228.08C171.597 225.048 168.711 221.912 165.554 222.05L165.547 222.057Z" fill="#FF885F" stroke="#231F20" stroke-width="1.6" stroke-linecap="round" stroke-linejoin="round"/>
<path d="M222.842 318.576C215.543 318.576 208.55 327.443 208.89 334.984C209.23 342.547 213.06 347.813 220.886 347.813C229.545 347.813 235.019 342.318 236.795 334.984C239.133 325.354 230.662 318.576 222.842 318.576Z" fill="white" stroke="#231F20" stroke-width="1.6" stroke-miterlimit="10"/>
<path d="M270.791 199.52C268.717 177.387 241.769 176.915 231.181 190.132C226.394 186.795 219.234 186.927 214.398 190.417C209.111 188.002 196.449 188.731 191.509 187.093C187.055 185.879 182.087 186.934 178.32 189.591C174.421 187.302 169.002 187.038 164.804 189.071C153.738 186.108 141.159 195.544 141.7 207.256C141.978 225.531 165.991 232.878 176.114 217.42C177.494 216.9 178.812 216.185 180.013 215.318C185.39 217.906 191.62 218.523 197.518 219.286C198.766 220.473 200.203 221.451 201.785 222.2C197.268 227.501 197.663 235.903 201.576 241.377C199.398 249.259 198.815 257.619 197.24 265.661C196.185 272.078 198.204 279.239 203.665 282.749C193.778 293.767 204.823 312.937 219.456 308.552C232.139 305.43 234.768 286.69 223.966 279.738C229.273 272.016 228.024 261.151 230.383 252.228C231.015 248.378 230.529 244.27 228.878 240.836C233.963 233.745 230.862 222.818 223.952 218.336C227.143 218.114 230.231 216.809 232.722 214.783C249.165 224.538 269.972 220.494 270.798 199.54L270.791 199.52Z" fill="white" stroke="#231F20" stroke-width="1.6" stroke-miterlimit="10"/>
<path d="M161.738 252.013C165.727 260.29 162.765 269.399 161.821 278.051C161.266 283.137 161.655 288.16 161.356 293.232C161.183 296.208 160.607 299.629 157.832 301.225C149.319 306.123 158.241 318.056 166.282 313.429C171.236 310.577 174.282 305.769 175.711 300.323C177.245 294.481 176.197 288.382 176.662 282.45C177.578 270.787 181.581 258.881 176.183 247.676C174.421 244.013 170.605 241.723 166.491 242.965C163.015 244.013 159.983 248.342 161.752 252.006L161.738 252.013Z" fill="#FF885F" stroke="#231F20" stroke-width="1.6" stroke-linecap="round" stroke-linejoin="round"/>
</svg>
