<svg width="306" height="357" viewBox="0 0 306 357" fill="none" xmlns="http://www.w3.org/2000/svg">
<path d="M126.835 146.94C122.014 122.201 88.7154 131.668 98.0081 155.298C89.42 164.186 96.9547 180.448 109.296 180.093C118.763 180.19 126.94 170.2 123.577 160.956C126.842 157.14 127.812 151.956 126.835 146.94Z" fill="white" stroke="#231F20" stroke-width="1.6" stroke-miterlimit="10"/>
<path d="M158.265 103.067L159.332 115.625L156.297 126.92L163.413 129.683L167.844 136.966L174.96 138.159L176.955 146.001L163.616 155.531L148.742 184.923L143.391 191.502L119.943 184.1L113.775 185.335L108.424 180.395L101.434 142.136L57 142.959L67.2834 196.03L103.896 208.371L126.94 210.018H133.121L138.047 216.185H144.214L148.742 225.652L144.214 230.787L113.364 234.289L86.6225 245.396L91.1433 265.146L117.27 308.75H109.659L114.598 314.924L119.119 319.445L119.531 331.787L105.543 337.549H95.6711L96.0827 343.723L122.001 354.007H137.635L142.163 347.421L146.684 350.714L163.141 351.126L159.848 309.985L154.093 299.701L146.684 296.408L133.121 268.021L174.248 267.609L191.941 263.912H203.871L207.575 251.158L217.035 242.103V219.89L221.975 179.572L216.247 155.768L219.777 154.617L210.61 135.773L206.501 113.148L197.661 91.4022L174.185 89.4139L158.265 103.067Z" fill="#FABEE8" stroke="#231F20" stroke-width="1.6" stroke-linecap="round" stroke-linejoin="round"/>
<path d="M254.38 150.773C254.471 136.059 240.957 130.583 232.809 139.973C228.037 145.819 228.183 156.18 234.169 161.154C227.556 164.007 228.588 175.888 237.295 175.888C244.223 175.888 246.288 168.347 243.504 163.833C249.881 163.205 254.415 157.959 254.387 150.766L254.38 150.773Z" fill="white" stroke="#231F20" stroke-width="1.6" stroke-miterlimit="10"/>
<path d="M119.077 215.591C121.352 207.094 114.626 195.562 106.206 193.217C98.5594 190.943 89.6783 195.896 87.7527 203.696C85.4784 212.194 92.2038 223.726 100.624 226.07C108.271 228.344 117.152 223.391 119.077 215.591Z" fill="white" stroke="#231F20" stroke-width="1.6" stroke-miterlimit="10"/>
<path d="M223.328 200.339C208.552 186.805 188.968 207.037 201.701 221.932C200.619 223.669 199.161 225.309 199.043 227.45C187.643 231.427 183.694 246.657 190.336 254.952C186.513 253.724 182.278 257.317 178.531 258.51C175.343 259.529 163.853 264.182 160.727 265.828C159.018 265.347 157.058 265.166 155.23 265.382C154.965 260.736 149.669 257.533 145.735 254.98C145.86 252.364 145.037 249.727 143.684 247.634C148.274 238.683 142.407 225.811 132.828 223.062C123.57 220.285 113.049 228.092 112.324 237.664C111.598 247.236 121.442 251.115 121.442 251.115C121.442 251.115 121.01 257.554 124.819 259.919C118.038 267.287 120.933 278.798 125.565 283.814C128.147 286.612 133.261 289.507 135.73 289.039C132.584 301.032 146.007 306.732 154.909 304.89C162.506 303.32 166.79 300.739 168.171 294.077C180.569 292.032 214.063 281.051 202.74 264.608C206.605 265.542 217.063 263.659 219.972 252.029C221.402 246.308 222.1 236.548 217.112 232.069C220.698 230.443 227.416 226.111 228.581 219.734C230.311 210.274 228.065 205.028 223.328 200.346V200.339Z" fill="white" stroke="#231F20" stroke-width="1.6" stroke-miterlimit="10"/>
<path d="M110.831 188.602C120.71 188.602 120.724 173.253 110.831 173.253C100.938 173.253 100.938 188.602 110.831 188.602Z" fill="white" stroke="#231F20" stroke-width="1.6" stroke-miterlimit="10"/>
<path d="M211.657 328.243C210.303 329.248 209.054 330.197 207.701 330.846C207.178 330.699 206.606 330.609 205.971 330.609C204.15 330.609 202.768 331.285 201.813 332.318C201.394 332.339 200.976 332.346 200.543 332.332C199.141 332.283 198.003 332.757 197.124 333.56C197.117 333.56 197.111 333.56 197.104 333.56C189.471 333.56 189.457 345.42 197.104 345.42C197.117 345.42 197.124 345.42 197.138 345.42C198.01 346.278 199.148 346.822 200.543 346.864C206.557 347.059 211.985 344.255 217.51 340.787C227.626 334.432 221.577 320.876 211.65 328.237L211.657 328.243Z" fill="white" stroke="#231F20" stroke-width="1.6" stroke-miterlimit="10"/>
<path d="M173.822 309.115C169.984 307.992 166.629 309.987 164.843 313.217C164.822 313.231 164.815 313.238 164.794 313.259C164.71 313.336 164.661 313.385 164.619 313.42C164.215 313.657 163.789 313.852 163.35 314.033C163.245 314.068 162.966 314.166 162.75 314.229C160.343 314.913 157.873 315.345 155.48 316.057C152.571 316.922 149.808 317.989 147.394 319.873C146.243 320.773 145.448 321.819 144.743 322.908C143.571 322.482 142.406 322.182 141.129 322.091C139.608 321.98 138.032 322.21 136.539 322.517C136.232 321.973 135.932 321.471 135.785 321.184C135.332 320.257 134.404 318.659 133.888 317.759C132.492 315.345 130.037 313.161 128.39 310.922C122.369 302.724 115.895 295.434 114.423 284.955C113.879 281.09 109.226 279.06 105.765 279.834C101.823 280.713 99.577 284.271 100.121 288.157C101.607 298.769 109.47 307.545 114.556 316.601C116.97 320.891 120.59 323.375 122.795 327.847C123.96 330.212 124.769 332.438 126.779 334.266C129.458 336.693 133.002 337.258 136.476 336.686C137.474 336.519 139.574 335.961 139.595 335.961C140.048 336.142 145.748 338.151 148.434 337.635C151.964 336.965 154.238 334.663 155.85 331.628C155.871 331.587 156.862 330.47 157.503 329.877C157.671 329.724 158.285 329.591 158.857 329.403C159.875 329.124 160.901 328.88 161.927 328.635C163.706 328.217 165.471 327.798 167.201 327.219C172.349 325.482 176.026 322.726 178.44 317.745C180.128 314.257 177.149 310.092 173.815 309.122L173.822 309.115Z" fill="#FF885F" stroke="#231F20" stroke-width="1.6" stroke-linecap="round" stroke-linejoin="round"/>
<path d="M266.526 201.956C266.079 197.993 262.444 195.942 258.796 195.942C255.482 195.942 252.712 199.018 252.559 202.214C251.868 202.744 251.282 203.469 250.856 204.425C248.205 210.453 245.554 216.488 242.896 222.515C239.819 229.513 251.233 234.041 254.219 227.239C256.87 221.211 259.521 215.176 262.179 209.148C262.242 209.009 262.291 208.869 262.34 208.73C264.963 207.69 266.84 204.76 266.519 201.963L266.526 201.956Z" fill="#FF885F" stroke="#231F20" stroke-width="1.6" stroke-linecap="round" stroke-linejoin="round"/>
<path d="M88.8554 80.9716C88.7856 80.6646 88.674 80.3786 88.5484 80.0995C89.8042 78.4531 90.5646 76.4299 90.5646 74.2671C90.5646 68.9719 86.0927 64.4999 80.7975 64.4999C75.5022 64.4999 71.0303 68.9859 71.0303 74.2671C71.0303 78.3065 73.6325 81.8576 77.2185 83.3227C77.2603 83.5948 77.3162 83.8669 77.4208 84.132C77.8045 85.1226 78.1882 86.1063 78.5789 87.097C78.7603 87.8714 79.1161 88.5412 79.6393 89.1132C80.0579 89.7621 80.6091 90.2713 81.2998 90.6411C82.5695 91.3876 84.4462 91.7015 85.8694 91.2411C87.3066 90.7737 88.6879 89.8876 89.4135 88.5133C90.1181 87.1877 90.5786 85.4017 90.0135 83.9436C89.6298 82.9529 89.2461 81.9692 88.8554 80.9786V80.9716Z" fill="white" stroke="#231F20" stroke-width="1.6" stroke-miterlimit="10"/>
</svg>
