<svg width="306" height="357" viewBox="0 0 306 357" fill="none" xmlns="http://www.w3.org/2000/svg">
<g clip-path="url(#clip0_3603_4990)">
<path d="M104.021 179.629C106.38 177.437 108.711 170.728 108.558 165.941C108.454 162.846 107.407 157.372 107.407 157.372C107.407 157.372 109.932 155.748 111.299 153.48C112.832 150.926 112.818 147.402 112.818 147.402C112.818 147.402 114.345 145.792 115.829 144.682C122.011 140.082 124.662 126.768 115.732 118.997C112.895 116.527 105.339 113.287 96.8745 116.985C90.9632 119.566 86.9253 128.183 86.9253 128.183C86.9253 128.183 84.2332 129.842 82.6514 131.479C76.3377 138.015 78.3775 145.633 78.3775 145.633C78.3775 145.633 74.7975 148.706 73.5695 151.558C71.6823 155.936 71.2382 166.731 73.6874 172.518C75.6786 177.215 80.2717 181.69 83.8518 183.522C86.7172 184.986 94.8139 188.163 104.014 179.629H104.021Z" fill="white" stroke="#231F20" stroke-width="1.6" stroke-miterlimit="10"/>
<path d="M113.089 306.556L114.879 307.423C116.718 308.263 118.557 309.102 120.27 310.191C120.929 310.608 122.9 311.919 123.92 313.029C124.308 312.953 124.697 312.89 125.092 312.856C126.528 312.696 127.992 312.731 129.435 312.821C134.022 313.092 138.039 313.938 142.5 312.356C146.663 310.878 149.931 308.263 152.526 304.717C157.382 298.084 168.358 306.07 163.37 312.883C159.429 318.267 153.774 322.458 147.433 324.574C144.345 325.608 141.091 326.26 137.837 326.33C134.313 326.413 130.705 325.365 127.222 325.698C123.122 326.087 119.694 326.857 116.121 324.075C113.776 322.243 113.721 320.98 111.535 319.953C106.082 317.379 101.329 314.979 99.8235 308.623C98.9909 305.106 102.12 301.831 105.43 301.456C108.899 301.068 111.903 303.295 112.971 306.452L113.082 306.542L113.089 306.556Z" fill="#FF885F" stroke="#231F20" stroke-width="1.6" stroke-linecap="round" stroke-linejoin="round"/>
<path d="M196.735 289.796C196.784 289.525 196.818 289.255 196.846 288.977C201.3 287.416 204.832 283.725 205.713 278.653C206.92 271.68 201.939 263.937 194.681 263.015C187.403 262.092 180.333 266.574 179.043 274.046C178.994 274.317 178.959 274.587 178.932 274.865C174.477 276.426 170.946 280.117 170.065 285.189C168.857 292.162 173.839 299.905 181.096 300.827C188.374 301.75 195.444 297.268 196.735 289.796Z" fill="white" stroke="#231F20" stroke-width="1.6" stroke-miterlimit="10"/>
<path d="M200.509 107.477C199.545 107.477 198.608 107.609 197.699 107.837C197.102 105.159 195.895 102.62 193.842 100.74C190.969 98.1033 187.445 96.4451 183.462 96.4451H177.78C174.019 96.4451 170.065 98.0825 167.4 100.74C164.854 103.286 162.939 107.463 163.106 111.119C163.272 114.914 164.521 118.848 167.4 121.499C170.273 124.135 173.797 125.793 177.78 125.793H183.462C185.467 125.793 187.514 125.322 189.401 124.482C191.316 128.742 195.625 131.802 200.509 131.802C207.08 131.802 212.665 126.217 212.665 119.646C212.665 113.076 207.1 107.491 200.509 107.491V107.477Z" fill="white" stroke="#231F20" stroke-width="1.6" stroke-miterlimit="10"/>
<path d="M145.607 100.094C144.782 100.094 143.97 100.212 143.193 100.407C142.68 98.11 141.646 95.9314 139.883 94.3149C137.42 92.053 134.389 90.6238 130.975 90.6238H126.097C122.871 90.6238 119.478 92.0322 117.189 94.3149C115.003 96.5004 113.359 100.08 113.498 103.223C113.644 106.484 114.712 109.856 117.189 112.132C119.652 114.394 122.684 115.823 126.097 115.823H130.975C132.696 115.823 134.451 115.414 136.074 114.699C137.719 118.355 141.417 120.978 145.607 120.978C151.248 120.978 156.042 116.184 156.042 110.543C156.042 104.902 151.269 100.108 145.607 100.108V100.094Z" fill="white" stroke="#231F20" stroke-width="1.6" stroke-miterlimit="10"/>
<path d="M112.638 177.582C110.328 181.024 110.696 185.859 112.846 189.294C114.997 192.728 121.859 195.018 125.377 196.988C132.571 201.012 143.603 205.189 151.859 203.905C159.387 202.74 167.505 200.353 166.291 197.064C164.147 191.264 162.218 190.057 157.382 190.716C150.874 191.604 144.144 192.534 138.51 189.231C135.999 187.76 131.336 186.276 128.797 184.853C127.5 184.125 125.987 182.925 124.565 182.487C122.262 181.78 124.662 176.757 121.762 175.126C118.328 173.197 114.706 174.488 112.631 177.582H112.638Z" fill="#FF885F" stroke="#231F20" stroke-width="1.6" stroke-linecap="round" stroke-linejoin="round"/>
<path d="M130.837 135.971L136.456 141.355L137.629 147.447H132.71L128.727 142.528V132.925H126.153L127.326 128.707L137.629 118.404L136.221 124.725L132.474 127.299L130.837 135.964V135.971ZM152.012 283.712L154.364 306.427L151.623 325.618V335.803L134.778 343.248L117.543 344.032V349.513L137.129 354.21L164.154 356.874L168.074 352.642H174.339H178.647H185.308V344.025L182.172 325.618L183.74 309.168L188.048 298.594V280.971L193.925 278.23L191.184 252.379L188.444 219.479L184.739 196.368L193.925 188.139L212.672 169.038L211.284 152.977L201.099 137.31L199.142 125.953V120.86H194.445L191.309 113.415L182.304 108.323L176.427 103.23L172.118 97.3538L159.505 92.1085L167.213 87.1964L165.236 73.334L160.865 59.1247L151.221 50.2578L138.156 50.9863L129.539 52.9429L121.991 64.4463L123.815 72.1059L120.811 81.3683L125.515 83.2416L126.299 87.1617L131.419 93.8222H137.268L138.836 97.7423L133.355 100.878L132.967 111.063L120.825 126.73L119.652 131.822L113.387 131.038L109.863 139.655L119.652 151.013L135.319 157.674L134.41 189.7V208.502L132.328 252.761L128.811 283.982L152.039 283.705L152.012 283.712Z" fill="#FABEE8" stroke="#231F20" stroke-width="1.6" stroke-linecap="round" stroke-linejoin="round"/>
<path d="M90.4845 57.9535C98.8172 57.9535 98.8311 45 90.4845 45C82.138 45 82.138 57.9535 90.4845 57.9535Z" fill="white" stroke="#231F20" stroke-width="1.6" stroke-miterlimit="10"/>
<path d="M104.951 177.125C106.747 177.881 108.385 178.783 109.766 180.219C110.265 180.739 110.792 181.239 111.299 181.752C113.158 183.619 114.615 185.777 115.143 188.351C115.413 189.662 115.496 191.001 115.677 192.326C115.677 192.798 115.649 193.263 115.6 193.721C118.022 192.132 120.866 191.188 123.753 191.188C132.141 191.188 138.351 198.043 138.711 206.147C139.072 214.223 131.579 221.105 123.753 221.105C115.365 221.105 109.155 214.251 108.794 206.147C108.773 205.738 108.801 204.933 108.801 204.933C108.801 204.933 107.275 205.661 106.477 206.001C104.624 206.785 102.772 207.292 100.711 207.292C98.6506 207.292 96.8052 206.785 94.9458 206.001C93.0864 205.217 91.5113 204.343 90.1306 202.907C89.6311 202.386 89.1038 201.887 88.5973 201.373C86.7379 199.507 84.2124 196.864 84.2124 190.793C84.2124 183.272 87.4733 179.796 92.0247 177.201C96.5761 174.606 103.084 176.341 104.937 177.118L104.951 177.125Z" fill="white" stroke="#231F20" stroke-width="1.6" stroke-miterlimit="10"/>
<path d="M233.153 228.922C232.869 222.588 229.025 217.023 223.364 214.866C225.154 211.431 225.286 207.373 224.828 203.404C224.398 199.664 222.732 193.635 216.363 189.833C215.739 189.437 215.094 189.104 214.434 188.841C213.755 182.895 207.385 175.256 202.917 173.313C196.721 170.621 192.718 171.759 186.21 170.885C182.366 170.372 177.281 171.079 173.867 172.876C171.314 170.635 167.998 169.268 164.244 169.268C156.397 169.268 148.883 176.165 149.244 184.269C149.605 192.393 155.835 199.269 164.244 199.269C166.756 199.269 169.226 198.561 171.425 197.333C173.014 198.735 175.248 202.474 178.155 203.57C181.263 204.743 187.612 207.255 193.807 204.389C193.898 205.194 194.002 207.261 194.05 208.087C194.661 217.44 199.851 218.807 202.785 220.347C203.535 220.826 204.305 221.2 205.103 221.485C203.77 223.698 203.021 226.244 203.139 228.929C203.222 230.768 203.611 232.544 204.249 234.195C200.697 236.977 198.31 241.224 198.518 245.872C198.879 253.997 205.11 260.872 213.519 260.872C221.366 260.872 228.879 253.976 228.519 245.872C228.435 244.034 228.047 242.257 227.409 240.606C230.961 237.824 233.348 233.578 233.14 228.929L233.153 228.922Z" fill="white" stroke="#231F20" stroke-width="1.6" stroke-miterlimit="10"/>
<path d="M139.204 263.953C138.885 263.953 138.559 263.966 138.24 263.987C135.548 259.165 130.594 255.821 124.572 255.821C116.288 255.821 108.357 263.106 108.739 271.654C109.12 280.229 115.698 287.487 124.572 287.487C124.891 287.487 125.217 287.473 125.536 287.452C128.228 292.274 133.182 295.618 139.204 295.618C147.488 295.618 155.418 288.333 155.037 279.785C154.655 271.203 148.078 263.953 139.204 263.953Z" fill="white" stroke="#231F20" stroke-width="1.6" stroke-miterlimit="10"/>
<path d="M192.963 80.2788C196.685 79.3931 199.889 81.6307 202.999 81.7106C205.949 81.7906 208.413 78.7338 207.647 75.5039C206.841 72.0942 205.483 70.5759 201.993 69.4038C199.536 68.578 197.591 69.5237 194.481 69.4437C191.531 69.3638 188.388 70.5226 187.349 73.546C186.197 76.9158 189.586 81.0846 192.956 80.2788H192.963Z" fill="white" stroke="#231F20" stroke-width="1.6" stroke-miterlimit="10"/>
</g>
<defs>
<clipPath id="clip0_3603_4990">
<rect width="306" height="357" fill="white"/>
</clipPath>
</defs>
</svg>
