<svg width="1440" height="758" viewBox="0 0 1440 758" fill="none" xmlns="http://www.w3.org/2000/svg">
<g clip-path="url(#clip0_5558_9589)">
<path d="M610.997 710.493C609.51 709.892 608.231 708.849 607.357 707.466C606.196 705.639 605.844 703.408 606.405 701.321L606.444 701.164C606.614 700.46 606.822 699.82 607.083 699.259C606.248 699.533 605.348 699.651 604.435 699.625C601.656 699.52 599.138 697.928 597.859 695.449L597.494 694.758C596.985 693.779 596.711 692.736 596.633 691.679C596.032 692.109 595.367 692.449 594.663 692.697L593.932 692.944C593.606 693.075 593.28 693.192 592.94 693.284C590.292 694.184 587.395 693.571 585.334 691.757C585.086 691.588 584.851 691.392 584.603 691.196C582.372 689.317 581.42 686.63 581.798 683.237V683.172C581.902 680.432 583.429 677.94 585.843 676.636C588.335 675.279 591.362 675.396 593.749 676.936C595.745 677.549 597.376 678.932 598.316 680.719C599.229 681.933 599.764 683.381 599.855 684.881C602.178 683.224 605.283 682.963 607.879 684.307L608.479 684.62C610.397 685.612 611.819 687.36 612.407 689.435C612.915 691.287 612.72 693.258 611.872 694.967C612.954 694.641 614.011 694.562 614.833 694.641C615.72 694.719 616.555 694.875 617.208 694.993L617.573 695.058C619.739 695.449 621.631 696.741 622.792 698.607C623.94 700.459 624.253 702.717 623.653 704.804L623.614 704.948C621.931 711.628 616.047 711.406 615.381 711.367C614.377 711.289 613.542 711.145 612.876 711.015L612.511 710.949C611.989 710.858 611.467 710.701 610.984 710.506L610.997 710.493Z" fill="white" stroke="#DBDBDB" stroke-width="1.6" stroke-miterlimit="10"/>
<path d="M941.915 726.672C940.479 726.672 939.031 726.267 937.766 725.458L935.417 723.958C932.064 721.818 930.877 717.5 932.651 713.951C934.439 710.402 938.614 708.771 942.332 710.193L942.789 710.363C943.402 710.585 944.172 710.872 945.007 711.276C946.429 711.968 948.321 713.416 949.234 716.352C950.291 719.365 949.404 722.732 946.938 724.819C945.503 726.046 943.715 726.659 941.928 726.659L941.915 726.672Z" fill="white" stroke="#DBDBDB" stroke-width="1.6" stroke-miterlimit="10"/>
<path d="M196.047 880.038C197.623 879.994 199.588 879.719 201.665 878.835C204.719 877.538 206.644 875.453 207.814 873.803C209.678 874.757 211.776 875.256 213.933 875.204C218.051 875.054 221.827 873.044 224.144 869.671L224.849 868.649C225.594 867.566 226.151 866.396 226.523 865.176C229.84 871.246 237.416 873.573 243.574 870.38L249.716 867.189C252.734 865.622 254.998 862.914 256.008 859.675C256.196 859.059 256.344 858.43 256.44 857.8C259.013 859 261.975 859.341 264.856 858.636L266.232 858.301C270.351 857.299 273.709 854.303 275.176 850.322C276.004 848.072 276.166 845.671 275.709 843.384C276.586 843.155 277.456 842.828 278.29 842.401C284.898 839.02 290.11 836.352 292.513 829.836C293.544 827.041 293.713 824.449 293.357 821.904L295.63 820.546C298.457 818.854 300.419 816.209 301.306 813.229C305.954 821.586 314.597 823.061 321.697 822.607C326.101 822.322 330.044 819.786 332.12 815.895C334.196 812.004 334.117 807.314 331.904 803.499C330.688 801.395 329.571 799.425 328.524 797.565C325.579 792.342 323.037 787.834 319.861 783.392C314.118 775.374 301.917 776.168 295.699 780.261C290.6 783.622 288.074 789.545 289.249 795.354C289.351 795.867 289.483 796.381 289.644 796.874C289.045 796.847 288.44 796.862 287.828 796.927C278.35 797.871 271.815 801.571 268.308 807.943C266.515 810.009 265.45 812.602 265.243 815.293C263.799 818.74 262.332 822.284 260.722 826.177C259.863 828.262 259.588 830.474 259.854 832.613C256.59 833.335 253.708 835.329 251.875 838.205L251.112 839.394C250.203 840.82 249.609 842.379 249.314 843.977C245.787 842.212 241.489 842.1 237.717 844.052L231.574 847.242C228.565 848.805 226.306 851.499 225.289 854.736C225.276 854.777 225.266 854.81 225.253 854.851C225.12 854.633 224.98 854.412 224.831 854.196C221.825 849.851 216.45 847.81 211.32 849.066L210.071 849.374C207.557 849.991 205.329 851.348 203.64 853.217C201.211 852.127 198.449 851.788 195.723 852.37L191.942 853.186C189.001 853.821 186.377 855.479 184.538 857.865L183.387 859.358C180.42 863.184 179.875 868.364 181.981 872.724C184.055 877.016 188.356 879.787 193.109 879.912L193.311 879.929C193.96 879.987 194.91 880.076 196.054 880.041L196.047 880.038Z" fill="white" stroke="#DBDBDB" stroke-width="1.6" stroke-miterlimit="10"/>
<path d="M1053.82 207.364C1053.24 207.956 1052.59 208.499 1051.88 208.967L1050.71 209.752C1047.24 212.077 1042.83 212.49 1038.98 210.853C1035.71 209.463 1033.23 206.745 1032.11 203.435C1031.12 203.861 1030.08 204.164 1028.99 204.329C1025.27 204.88 1021.5 203.71 1018.76 201.157L1018.7 201.109C1016.85 199.547 1015.62 197.909 1014.84 196.313C1011.73 196.98 1008.21 197.166 1004.28 196.863C999.03 196.464 994.606 192.783 993.257 187.691C992.83 186.074 992.741 184.422 992.961 182.833C989.19 180.074 986.789 176.206 985.997 171.837C985.812 171.816 985.626 171.796 985.44 171.761C979.247 170.825 973.04 165.362 973.412 157.848C973.577 154.696 973.839 151.641 974.093 148.682L974.3 146.288C974.582 142.875 976.268 139.723 978.965 137.604C981.655 135.477 985.103 134.562 988.488 135.078L991.722 135.567C998.163 136.537 1002.88 142.352 1002.35 148.847L1002.17 151.049C1002.16 151.146 1002.15 151.242 1002.15 151.331C1003.54 151.558 1004.91 152.026 1006.21 152.749C1006.65 152.997 1006.99 153.169 1007.26 153.306C1008.33 153.85 1009.95 154.676 1011.59 156.32C1013.83 158.557 1015.38 160.758 1016.41 162.864C1019.69 162.004 1023.24 162.513 1026.2 164.392C1030.19 166.931 1032.37 171.507 1031.86 176.179C1032.4 176.378 1032.93 176.619 1033.45 176.895L1033.9 166.779C1034.09 162.382 1036.61 158.412 1040.51 156.361C1044.41 154.311 1049.1 154.49 1052.83 156.829C1060.51 161.632 1063.05 169.401 1059.59 176.963C1059.55 177.686 1059.51 178.436 1059.47 179.213C1059.44 179.95 1059.4 180.679 1059.36 181.415C1059.17 184.718 1057.66 187.808 1055.18 190.003C1054.93 190.216 1054.68 190.423 1054.42 190.622C1055.83 192.253 1056.8 194.262 1057.2 196.471C1057.93 200.483 1056.63 204.529 1053.84 207.364H1053.82Z" fill="white" stroke="#DBDBDB" stroke-width="1.6" stroke-miterlimit="10"/>
<path d="M1333.94 284.831C1332.4 284.788 1330.5 284.521 1328.48 283.662C1325.51 282.402 1323.64 280.376 1322.5 278.773C1320.69 279.7 1318.65 280.185 1316.56 280.134C1312.56 279.988 1308.89 278.036 1306.64 274.759L1305.95 273.766C1305.23 272.714 1304.69 271.577 1304.33 270.392C1301.1 276.289 1293.74 278.55 1287.76 275.447L1281.79 272.348C1278.86 270.825 1276.66 268.194 1275.68 265.048C1275.5 264.449 1275.35 263.838 1275.26 263.226C1272.76 264.392 1269.88 264.723 1267.08 264.038L1265.75 263.712C1261.75 262.739 1258.48 259.828 1257.06 255.961C1256.25 253.774 1256.1 251.441 1256.54 249.219C1255.69 248.997 1254.84 248.68 1254.03 248.265C1247.61 244.98 1242.55 242.388 1240.21 236.058C1239.21 233.342 1239.05 230.824 1239.39 228.351L1237.19 227.032C1234.44 225.388 1232.53 222.819 1231.67 219.924C1227.16 228.043 1218.76 229.476 1211.86 229.034C1207.58 228.757 1203.75 226.293 1201.73 222.513C1199.72 218.733 1199.8 214.177 1201.94 210.47C1203.13 208.426 1204.21 206.512 1205.23 204.705C1208.09 199.631 1210.56 195.251 1213.65 190.935C1219.22 183.146 1231.08 183.917 1237.12 187.893C1242.07 191.159 1244.53 196.914 1243.39 202.557C1243.29 203.055 1243.16 203.554 1243 204.034C1243.58 204.007 1244.17 204.022 1244.77 204.085C1253.97 205.002 1260.32 208.597 1263.73 214.787C1265.47 216.795 1266.51 219.314 1266.71 221.929C1268.11 225.278 1269.54 228.721 1271.1 232.502C1271.94 234.528 1272.2 236.677 1271.94 238.756C1275.12 239.457 1277.92 241.394 1279.7 244.189L1280.44 245.344C1281.32 246.729 1281.9 248.244 1282.18 249.796C1285.61 248.082 1289.79 247.973 1293.45 249.869L1299.42 252.968C1302.34 254.486 1304.54 257.104 1305.53 260.249C1305.54 260.288 1305.55 260.321 1305.56 260.361C1305.69 260.148 1305.83 259.934 1305.97 259.725C1308.89 255.502 1314.11 253.52 1319.1 254.74L1320.31 255.039C1322.75 255.639 1324.92 256.957 1326.56 258.773C1328.92 257.714 1331.6 257.384 1334.25 257.951L1337.92 258.743C1340.78 259.36 1343.33 260.971 1345.12 263.289L1346.24 264.739C1349.12 268.456 1349.65 273.489 1347.6 277.725C1345.59 281.894 1341.41 284.587 1336.79 284.708L1336.59 284.725C1335.96 284.781 1335.04 284.868 1333.93 284.833L1333.94 284.831Z" fill="white" stroke="#DBDBDB" stroke-width="1.6" stroke-miterlimit="10"/>
<path d="M782.138 186.42C779.546 186.42 776.986 185.66 774.786 184.204L769.154 180.476C763.082 176.46 761.362 168.316 765.29 162.188L766.154 160.836C770.09 154.716 778.218 152.892 784.394 156.74L790.122 160.308C793.138 162.188 795.274 165.188 796.066 168.644C796.858 172.1 796.234 175.732 794.33 178.732L793.394 180.212C791.482 183.244 788.434 185.372 784.93 186.124C784.002 186.324 783.066 186.42 782.138 186.42Z" fill="white" stroke="#DBDBDB" stroke-width="1.6" stroke-miterlimit="10"/>
<path d="M1039.51 82.1382C1038.94 82.1382 1038.37 82.0901 1037.79 82.0021C1035.75 81.6821 1034.26 80.8742 1033.62 80.5302L1033.67 80.5541C1030.38 78.9621 1028.16 75.7541 1027.84 72.1061C1027.54 68.5861 1029.04 65.1621 1031.82 63.0101C1034.26 60.9381 1036.92 59.9781 1039.79 60.1061C1040.7 60.1461 1041.79 60.3142 1042.95 60.7382C1043.93 57.8902 1046.21 55.6021 1049.76 53.8981C1050.11 53.7301 1050.51 53.5461 1050.94 53.3061C1053.98 51.6181 1057.66 51.5621 1060.75 53.1621C1063.83 54.7621 1065.91 57.7941 1066.29 61.2501L1066.96 67.3941C1067.29 70.3861 1066.3 73.3702 1064.26 75.5702C1062.29 77.6902 1059.53 78.8902 1056.65 78.8902H1056.59L1056.35 78.9061C1053.02 79.1541 1050.53 78.4821 1048.68 77.4181C1047.86 78.5541 1046.8 79.5301 1045.56 80.2661C1043.62 81.5061 1041.59 82.1302 1039.5 82.1302L1039.51 82.1382Z" fill="white" stroke="#DBDBDB" stroke-width="1.6" stroke-miterlimit="10"/>
<path d="M1108.09 92.5613C1109.99 94.4948 1110.95 97.2473 1110.56 100.048L1109.59 106.812C1109.8 107.968 1109.78 109.151 1109.52 110.294C1111.54 109.846 1113.67 110.101 1115.53 111.058C1117.89 112.275 1119.59 114.477 1120.16 117.065C1120.2 117.209 1120.25 117.354 1120.3 117.498C1120.84 119.129 1122.1 122.955 1119.93 126.911C1118.59 129.347 1114.79 135.01 1108.42 134.928C1100.08 134.818 1093.36 129.98 1091.32 122.604C1090.56 119.872 1089.03 114.312 1090.92 108.408C1089.35 103.254 1090.73 97.8321 1095.03 92.9259C1097.63 89.9602 1101.87 89.0588 1105.44 90.6965C1106.46 91.1575 1107.34 91.7906 1108.09 92.5544L1108.09 92.5613Z" fill="white" stroke="#DBDBDB" stroke-width="1.6" stroke-miterlimit="10"/>
<path d="M683.525 220.735C683.341 220.735 683.157 220.735 682.973 220.719L681.949 220.655C678.773 220.463 675.933 218.623 674.445 215.807C672.965 212.991 673.061 209.607 674.701 206.879L675.165 206.111C676.765 203.447 679.613 201.783 682.717 201.703C685.829 201.623 688.757 203.127 690.501 205.695L691.061 206.519C693.005 209.391 693.149 213.119 691.429 216.135C689.805 218.983 686.781 220.727 683.525 220.727V220.735Z" fill="white" stroke="#DBDBDB" stroke-width="1.6" stroke-miterlimit="10"/>
<path d="M841.995 414.737C844.191 407.078 855.111 404.388 861.648 404.773C866.946 405.09 871.784 407.361 873.222 408.372C875.878 410.237 878.651 412.095 881.334 413.898C884.479 416.01 887.727 418.191 890.906 420.448C893.72 422.451 896.81 422.905 900.925 421.914C902.927 421.432 904.985 420.841 907.166 420.207C908.233 419.898 909.333 419.581 910.469 419.258C912.306 418.742 914.281 419.024 915.898 420.042C921.712 423.689 926.763 427.866 931.325 432.82C933.617 435.325 933.727 439.124 931.559 441.738L926.564 447.78C924.52 450.25 921.031 450.952 918.196 449.466C912.774 446.631 907.4 447.154 899.012 451.344C896.115 452.789 892.612 451.977 890.624 449.431C889.86 448.447 889.144 447.477 888.443 446.528C887.018 444.601 885.787 442.936 884.445 441.518C882.896 439.894 881.039 438.367 879.071 436.75C878.362 436.165 877.653 435.587 876.958 434.995C876.958 434.995 874.075 432.855 870.896 431.747C865.893 430.006 862.006 434.506 856.941 434.362C849.289 434.142 839.532 423.352 842.002 414.73L841.995 414.737Z" fill="white" stroke="#DBDBDB" stroke-width="1.6" stroke-miterlimit="10"/>
<path d="M1138.84 379.244C1137.64 380.124 1136.18 380.62 1134.67 380.636C1132.65 380.66 1130.73 379.836 1129.35 378.372L1129.25 378.268C1128.77 377.796 1128.37 377.316 1128.05 376.828C1127.85 377.62 1127.51 378.388 1127.04 379.092C1125.59 381.236 1123.1 382.436 1120.52 382.236L1119.79 382.18C1118.77 382.1 1117.81 381.812 1116.94 381.348C1116.98 382.028 1116.93 382.716 1116.77 383.404L1116.61 384.1C1116.56 384.42 1116.49 384.74 1116.4 385.052C1115.81 387.588 1113.9 389.572 1111.46 390.3C1111.21 390.412 1110.93 390.508 1110.66 390.596C1108.08 391.436 1105.5 390.868 1103.01 388.908L1102.96 388.868C1100.85 387.452 1099.63 385.02 1099.78 382.468C1099.93 379.836 1101.52 377.5 1103.89 376.38C1105.37 375.1 1107.25 374.5 1109.12 374.636C1110.52 374.516 1111.93 374.796 1113.16 375.468C1112.99 372.82 1114.3 370.244 1116.64 368.852L1117.17 368.532C1118.89 367.5 1120.97 367.236 1122.9 367.796C1124.62 368.3 1126.08 369.42 1127.01 370.932C1127.28 369.916 1127.73 369.052 1128.2 368.436C1128.69 367.772 1129.22 367.196 1129.65 366.732L1129.88 366.476C1131.25 364.956 1133.19 364.1 1135.23 364.1C1137.25 364.1 1139.19 364.956 1140.55 366.46L1140.65 366.564C1145.09 371.164 1142.03 375.708 1141.67 376.212C1141.12 376.964 1140.59 377.548 1140.17 378.012L1139.93 378.268C1139.6 378.636 1139.23 378.972 1138.84 379.26V379.244Z" fill="white" stroke="#DBDBDB" stroke-width="1.6" stroke-miterlimit="10"/>
<path d="M304.387 230.174C303.139 230.462 301.811 230.542 300.467 230.374C294.355 229.598 290.027 224.022 290.795 217.91C291.019 216.158 291.043 215.246 291.019 214.782C289.443 213.398 288.315 211.614 287.715 209.662C284.627 204.806 281.275 197.19 285.899 188.078C287.715 184.494 290.539 182.774 292.603 181.526C293.315 181.094 294.051 180.646 294.907 180.046C297.403 178.294 300.443 177.678 303.331 178.206C305.771 174.278 310.507 172.134 315.267 173.206L322.163 174.758C325.051 175.406 327.563 177.182 329.139 179.686C330.723 182.19 331.243 185.214 330.587 188.102L330.387 188.966C329.027 194.974 323.059 198.742 317.051 197.39L311.435 196.126L310.227 203.206C314.291 209.87 313.371 217.15 312.915 220.718C312.315 225.478 308.787 229.158 304.371 230.19L304.387 230.174Z" fill="white" stroke="#DBDBDB" stroke-width="1.6" stroke-miterlimit="10"/>
<path d="M974.645 640.442C972.682 640.442 970.735 639.791 969.145 638.532L968.409 637.951C966.142 636.164 964.889 633.384 965.043 630.504C965.097 629.485 965.326 628.498 965.705 627.581C964.003 627.095 962.478 626.114 961.336 624.759C960.216 624.61 959.01 624.455 957.666 624.279C954.06 623.809 951.105 621.196 950.209 617.675C949.307 614.154 950.641 610.442 953.58 608.297C957.943 605.118 964.526 602.734 971.679 608.671C974.432 609.967 976.395 612.629 976.72 615.781L976.965 618.118C977.094 619.361 976.965 620.572 976.608 621.697C977.712 621.921 978.784 622.358 979.755 623.004C982.662 624.935 984.167 628.397 983.601 631.837L983.409 633.006C982.897 636.105 980.79 638.708 977.862 639.844C976.821 640.25 975.733 640.447 974.65 640.447L974.645 640.442Z" fill="white" stroke="#DBDBDB" stroke-width="1.6" stroke-miterlimit="10"/>
<path d="M1154.54 305.36C1153.65 305.36 1152.76 305.088 1152 304.528C1151.92 304.48 1151.69 304.344 1151.53 304.256C1150.49 303.672 1148.75 302.688 1148.02 300.576C1147.76 299.8 1147.36 298.96 1146.93 298.072C1145.45 294.952 1143.42 290.68 1145.48 285.184C1145.98 283.824 1147.14 282.808 1148.56 282.488L1153.04 281.48C1154.82 281.08 1156.66 281.84 1157.63 283.392L1162.51 291.184C1163.15 292.208 1163.33 293.448 1163.01 294.608C1162.1 297.928 1160.78 301.4 1157.33 304.336C1156.53 305.016 1155.54 305.36 1154.54 305.36Z" fill="white" stroke="#DBDBDB" stroke-width="1.6" stroke-miterlimit="10"/>
<path d="M1288.56 170.575C1286.6 170.575 1284.67 169.871 1283.15 168.551C1280.79 166.495 1273.6 160.239 1275.39 149.647C1275.87 146.759 1277.86 144.351 1280.59 143.311C1283.33 142.271 1286.42 142.767 1288.69 144.607L1289.11 144.943C1292.49 147.663 1299.53 153.319 1296.51 164.487C1295.76 167.231 1293.67 169.391 1290.95 170.215C1290.16 170.455 1289.35 170.575 1288.55 170.575H1288.56Z" fill="white" stroke="#DBDBDB" stroke-width="1.6" stroke-miterlimit="10"/>
</g>
<defs>
<clipPath id="clip0_5558_9589">
<rect width="1440" height="758" fill="white"/>
</clipPath>
</defs>
</svg>
