<svg width="306" height="357" viewBox="0 0 306 357" fill="none" xmlns="http://www.w3.org/2000/svg">
<path d="M178.366 78.8755H167.252L158.641 86.9237L154.201 99.9812L148.921 94.4238L144.481 84.7035L138.923 73.318L134.198 67.7606L127.538 53.0449L112.815 28.8794V15.2668L103.927 10.9999L95.8721 17.7715L101.707 24.1545L106.425 31.9322L121.98 66.928L126.983 75.8158L121.425 84.7035L126.428 90.2609L128.925 97.761L131.978 103.034V112.477L135.315 118.589L134.483 137.822L105.87 181.358L119.76 196.636L115.313 205.524L116.423 215.799L98.0922 231.91L100.32 241.63L125.872 259.96L131.423 279.408L130.868 292.736L139.201 313.849L145.591 336.897L138.923 339.957L138.368 344.397L130.035 351.065L134.483 354.485L165.031 352.73V337.175L158.919 318.567L153.646 286.339L153.091 274.919H156.421L160.868 281.073L168.362 289.406L176.673 282.461V266.35L170.589 248.297L154.478 248.02L147.811 242.462V231.632L153.923 226.637L183.084 234.13L202.525 217.749L206.972 202.194V177.196L203.635 162.75L198.834 145.974L209.747 136.087L210.219 130.162L214.75 127.199V117.202L218.913 116.369V108.314L223.36 101.646L239.748 69.9878L246.686 63.5977L254.741 59.4279L252.799 52.2054L245.021 48.5975L237.243 58.3178L229.188 71.6529L217.525 88.3183L205.307 108.036L197.252 111.922L192.25 122.759L190.584 113.032V93.5912L184.749 80.8182L178.366 78.8755Z" fill="#FABEE8" stroke="#231F20" stroke-width="1.6" stroke-linecap="round" stroke-linejoin="round"/>
<path d="M92.7775 171.627C89.246 164.654 83.8134 159.166 77.4789 154.719C71.6093 150.597 62.0208 153.463 58.7668 159.624C55.0757 166.618 57.3931 173.896 63.6235 178.301C63.8178 178.468 64.0121 178.627 64.1994 178.801C65.1222 179.634 65.9895 180.522 66.8082 181.465C66.9886 181.722 67.1828 181.986 67.266 182.117C67.9668 183.186 68.5842 184.296 69.1601 185.434C72.4002 191.831 81.9193 194.176 87.8722 190.339C94.4079 186.128 96.2396 178.468 92.7775 171.627Z" fill="white" stroke="#231F20" stroke-width="1.6" stroke-miterlimit="10"/>
<path d="M264.836 123.241C268.367 121.402 271.08 118.148 271.566 114.166C272.426 107.193 267.923 100.401 260.506 99.1378C253.582 97.9583 245.95 102.704 245.097 109.656C244.542 114.159 246.221 118.578 249.475 121.492C249.045 121.728 248.628 121.985 248.233 122.283C247.393 123.026 246.561 123.775 245.721 124.517C244.673 125.739 243.896 127.078 243.376 128.542C237.506 132.226 235.945 141.19 240.296 146.608C244.923 152.367 252.756 153.727 259.015 149.8C261.131 148.468 263.205 146.692 264.69 144.693C267.188 141.335 268.062 139.087 269.29 135.167C270.206 132.24 268.707 127.862 266.952 125.475C266.376 124.691 265.654 123.935 264.836 123.241Z" fill="white" stroke="#231F20" stroke-width="1.6" stroke-miterlimit="10"/>
<path d="M155.929 272.391C155.845 270.143 154.742 266.618 155.769 264.676C156.428 262.657 157.552 260.908 159.141 259.431C160.189 258.383 161.993 251.889 169.257 251.688C167.904 249.502 165.364 240.406 171.692 234.322C177.319 228.903 185.145 231.442 186.345 232.15C186.373 232.081 185.152 224.358 189.995 219.092C196.406 212.113 208.353 212.362 214.66 217.046C218.545 219.939 221.522 225.808 221.071 232.358C219.919 249.183 202.06 251.327 202.06 251.327C202.06 251.327 204.669 258.383 195.656 267.805C196.211 271.767 194.643 272.793 193.665 273.765C191.875 275.555 187.4 274.743 187.157 275.215C187.886 276.838 188.017 278.788 187.122 280.842C186.227 282.895 184.208 283.929 183.799 284.262C183.896 296.272 180.462 306.193 167.987 313C165.337 314.54 161.292 314.783 158.218 314.797C156.713 314.596 155.207 314.394 153.702 314.186C152.321 313.874 151.03 313.333 149.837 312.632C149.324 312.847 148.81 313.062 148.297 313.284C144.099 314.644 139.52 313.638 135.732 311.64C132.207 309.774 129.279 305.68 128.239 301.899C127.517 299.269 127.455 295.439 128.412 292.345C125.228 289.341 123.236 285.046 123.028 280.377C122.986 279.482 123.042 278.601 123.167 277.74C115.084 276.713 109.284 269.727 108.923 261.568C108.854 259.972 109.062 258.425 109.506 256.954C108.111 256.572 106.8 256.031 105.662 255.365C101.943 253.186 98.6545 248.919 97.9815 244.687C97.5929 243.161 97.2114 241.641 96.8228 240.122C95.6642 236.167 95.9209 232.323 97.3779 228.695C90.5092 226.766 85.7497 220.348 85.4166 212.987C85.0212 204.182 93.1943 196.682 101.721 196.682C110.859 196.682 117.63 204.155 118.026 212.987C118.13 215.235 117.665 217.393 116.791 219.37C118.158 219.751 119.448 220.286 120.565 220.938C124.402 223.186 127.781 227.654 128.301 232.011C128.572 233.093 128.835 234.169 129.106 235.251C130.376 238.894 130.431 242.446 129.467 245.825C136.398 247.719 141.206 254.165 141.539 261.568C141.567 262.22 141.546 262.865 141.483 263.503C141.449 263.864 141.747 264.176 142.108 264.176C144.404 264.162 151.724 264.745 155.943 272.412L155.929 272.391Z" fill="white" stroke="#231F20" stroke-width="1.6" stroke-miterlimit="10"/>
<path d="M211.808 320.794C207.797 320.794 204.252 323.403 202.802 326.969C202.739 326.92 202.67 326.872 202.608 326.816C201.095 325.935 199.458 325.498 197.702 325.491H196.134C194.795 325.443 193.546 325.72 192.395 326.331C191.188 326.719 190.147 327.392 189.266 328.336C188.315 329.217 187.649 330.258 187.26 331.465C186.65 332.624 186.372 333.872 186.421 335.205C186.539 336.065 186.65 336.925 186.768 337.785C187.233 339.43 188.065 340.859 189.266 342.073C189.918 342.58 190.577 343.086 191.229 343.593C192.742 344.474 194.379 344.911 196.134 344.918H197.702C199.041 344.966 200.29 344.689 201.442 344.078C202.649 343.69 203.69 343.017 204.571 342.073C205.522 341.192 206.188 340.151 206.576 338.944C206.618 338.861 206.646 338.778 206.687 338.694C208.186 339.645 209.941 340.214 211.808 340.214C217.06 340.214 221.521 335.753 221.521 330.5C221.521 325.248 217.074 320.787 211.808 320.787V320.794Z" fill="white" stroke="#231F20" stroke-width="1.6" stroke-miterlimit="10"/>
<path d="M79.4013 48.5375C79.0544 48.5375 78.7144 48.5722 78.3745 48.6277C77.1325 46.4214 74.8568 44.8881 72.0885 44.8881C68.2656 44.8881 64.6093 48.2461 64.7828 52.1939C64.9632 56.1486 67.995 59.4997 72.0885 59.4997C72.4354 59.4997 72.7753 59.465 73.1153 59.4095C74.3572 61.6159 76.633 63.1492 79.4013 63.1492C83.2242 63.1492 86.8806 59.7911 86.7071 55.8433C86.5267 51.8886 83.4948 48.5375 79.4013 48.5375Z" fill="white" stroke="#231F20" stroke-width="1.6" stroke-miterlimit="10"/>
<path d="M194.879 170.179C192.034 167.695 188.024 168.084 185.505 170.533C181.599 174.335 177.762 178.137 171.865 181.89C169.444 183.431 167.473 185.582 165.211 187.351C165.08 187.448 164.948 187.559 164.809 187.67C164.08 188.26 162.998 187.996 162.63 187.136C162.207 186.144 161.77 185.151 161.333 184.166C159.876 180.926 158.009 175.813 156.393 172.656C153.465 166.953 144.73 158.641 143.079 156.879C140.546 154.166 138.458 148.948 137.362 147.651C135.447 145.382 134.475 145.049 132.165 143.238C131.589 142.78 131.485 142.149 131.513 141.899C136.661 140.081 135.357 130.375 128.412 129.23C121.467 128.085 115.437 133.851 114.903 138.874C114.272 144.792 117.997 149.302 122.417 152.612C123.853 153.687 125.796 154.825 126.392 156.643C127.357 159.591 130.014 162.485 132.505 164.913C134.566 166.925 136.481 168.708 138.576 170.248C140.185 171.435 142.399 175.611 143.377 177.304C146.659 182.973 147.554 184.825 149.975 190.91C152.279 196.703 153.153 202.816 162.589 203.843C168.597 204.495 173.78 195.253 179.032 192.464C185.082 189.252 189.821 183.486 195.219 178.99C197.89 176.77 197.307 172.295 194.886 170.179H194.879Z" fill="#FF885F" stroke="#231F20" stroke-width="1.6" stroke-linecap="round" stroke-linejoin="round"/>
<path d="M208.628 129.079C207.768 129.065 206.956 129.232 206.221 129.495C203.973 130.293 202.238 132.118 201.385 134.345C200.427 136.829 198.498 140.339 198.526 141.498C190.769 148.284 196.278 154.549 198.894 156.089C205.388 159.912 208.496 145.932 211.417 144.093C215.344 141.623 216.711 136.392 215.636 133.269C214.56 130.147 210.356 129.107 208.628 129.079Z" fill="#FF885F" stroke="#231F20" stroke-width="1.6" stroke-linecap="round" stroke-linejoin="round"/>
<path d="M150.634 266.477L156.303 274.83L160.75 280.985L168.243 289.317L176.562 282.372V266.262L170.47 248.209L154.36 247.931L147.692 242.381" fill="#FABEE8"/>
<path d="M150.634 266.477L156.303 274.83L160.75 280.985L168.243 289.317L176.562 282.372V266.262L170.47 248.209L154.36 247.931L147.692 242.381" stroke="#231F20" stroke-width="1.6" stroke-linecap="round" stroke-linejoin="round"/>
</svg>
