<svg width="306" height="357" viewBox="0 0 306 357" fill="none" xmlns="http://www.w3.org/2000/svg">
<path d="M160.887 114.835C160.443 104.879 152.811 96.4564 142.508 96.4564C132.892 96.4564 123.685 104.907 124.129 114.835C124.476 122.571 129.159 129.385 136.07 132.035C136.999 134.151 138.623 136.094 141.114 137.627C152.714 144.746 163.871 131.286 159.756 121.399C160.568 119.345 160.991 117.132 160.887 114.842V114.835Z" fill="white" stroke="#231F20" stroke-width="1.6" stroke-miterlimit="10"/>
<path fill-rule="evenodd" clip-rule="evenodd" d="M216.491 138.127L220.446 153.745V153.724L238.353 185.376L237.52 199.536L226.898 215.987L217.525 220.358L208.776 217.027L204.197 211.824L203.572 234.109L207.111 257.227L214.611 297.211L217.525 335.739V350.232L210.233 352.605L208.359 354.478H176.708L164.837 351.773L163.38 346.153L159.217 344.279L145.056 344.487L140.269 340.741L142.766 336.37H149.219L155.88 329.501L150.884 316.589L158.252 274.295L157.961 265.365L156.296 240.166L159.002 198.516L157.336 193.937L153.59 186.645L154.423 163.111L149.635 157.7L143.599 161.862L138.18 161.238L136.314 152.281L142.142 137.912L145.68 136.871L145.889 133.125L148.178 133.333V130.419L151.508 128.546L161.09 106.26L168.798 103.138L173.586 98.7671L167.758 92.1065L163.178 91.8984L160.056 80.6517L157.35 77.9458L162.97 70.862L161.93 64.2014L162.762 61.0793L170.678 52.5384L175.882 51.914L187.753 49L198.375 57.9571L200.249 72.1178L196.294 84.4052L204.627 90.6495L207.124 101.48V104.81L202.962 100.231V106.267L208.373 112.72V118.964L212.328 126.672L216.491 138.127ZM181.349 271.604L181.287 260.211L185.734 272.277L185.977 284.738L184.846 301.139L188.634 331.001L181.155 338.571L179.753 334.657L180.87 323.612L178.643 307.987L179.781 285.244L181.349 271.604Z" fill="#FABEE8"/>
<path d="M220.446 153.745L219.67 153.941C219.769 154.332 220.144 154.589 220.545 154.539C220.945 154.489 221.246 154.148 221.246 153.745H220.446ZM216.491 138.127L217.266 137.931C217.26 137.905 217.252 137.879 217.243 137.854L216.491 138.127ZM220.446 153.724L221.142 153.33C220.963 153.014 220.593 152.858 220.242 152.95C219.89 153.043 219.646 153.361 219.646 153.724H220.446ZM238.353 185.376L239.152 185.423C239.161 185.269 239.125 185.116 239.049 184.982L238.353 185.376ZM237.52 199.536L238.192 199.97C238.267 199.854 238.311 199.721 238.319 199.583L237.52 199.536ZM226.898 215.987L227.236 216.712C227.373 216.648 227.488 216.547 227.57 216.421L226.898 215.987ZM217.525 220.358L217.24 221.105C217.442 221.182 217.667 221.174 217.863 221.083L217.525 220.358ZM208.776 217.027L208.175 217.556C208.261 217.653 208.37 217.729 208.491 217.775L208.776 217.027ZM204.197 211.824L204.797 211.295C204.58 211.048 204.234 210.96 203.925 211.071C203.615 211.183 203.406 211.473 203.397 211.801L204.197 211.824ZM203.572 234.109L202.772 234.087C202.771 234.135 202.774 234.183 202.781 234.23L203.572 234.109ZM207.111 257.227L206.32 257.348C206.321 257.357 206.323 257.365 206.324 257.374L207.111 257.227ZM214.611 297.211L215.408 297.151C215.406 297.122 215.402 297.092 215.397 297.064L214.611 297.211ZM217.525 335.739H218.325C218.325 335.718 218.324 335.698 218.322 335.678L217.525 335.739ZM217.525 350.232L217.772 350.993C218.102 350.886 218.325 350.579 218.325 350.232H217.525ZM210.233 352.605L209.985 351.844C209.865 351.883 209.756 351.95 209.667 352.039L210.233 352.605ZM208.359 354.478V355.278C208.572 355.278 208.775 355.194 208.925 355.044L208.359 354.478ZM176.708 354.478L176.53 355.258C176.588 355.272 176.648 355.278 176.708 355.278V354.478ZM164.837 351.773L164.062 351.973C164.137 352.263 164.367 352.486 164.659 352.553L164.837 351.773ZM163.38 346.153L164.154 345.952C164.093 345.717 163.929 345.523 163.708 345.423L163.38 346.153ZM159.217 344.279L159.545 343.55C159.438 343.502 159.322 343.478 159.205 343.479L159.217 344.279ZM145.056 344.487L144.563 345.117C144.707 345.23 144.885 345.29 145.068 345.287L145.056 344.487ZM140.269 340.741L139.574 340.344C139.377 340.689 139.463 341.126 139.776 341.371L140.269 340.741ZM142.766 336.37V335.57C142.479 335.57 142.214 335.724 142.072 335.973L142.766 336.37ZM149.219 336.37V337.17C149.435 337.17 149.643 337.082 149.793 336.927L149.219 336.37ZM155.88 329.501L156.454 330.058C156.671 329.834 156.738 329.504 156.626 329.212L155.88 329.501ZM150.884 316.589L150.096 316.452C150.071 316.595 150.085 316.742 150.138 316.878L150.884 316.589ZM158.252 274.295L159.04 274.432C159.05 274.378 159.054 274.323 159.052 274.268L158.252 274.295ZM157.961 265.365L158.761 265.339C158.76 265.33 158.76 265.321 158.759 265.312L157.961 265.365ZM156.296 240.166L155.497 240.114C155.495 240.149 155.495 240.184 155.498 240.219L156.296 240.166ZM159.002 198.516L159.8 198.568C159.807 198.458 159.791 198.347 159.753 198.243L159.002 198.516ZM157.336 193.937L158.088 193.664C158.077 193.632 158.063 193.602 158.048 193.572L157.336 193.937ZM153.59 186.645L152.79 186.617C152.786 186.754 152.816 186.889 152.878 187.011L153.59 186.645ZM154.423 163.111L155.222 163.14C155.229 162.935 155.158 162.735 155.022 162.581L154.423 163.111ZM149.635 157.7L150.234 157.169C149.966 156.866 149.514 156.811 149.181 157.041L149.635 157.7ZM143.599 161.862L143.507 162.657C143.7 162.679 143.894 162.631 144.053 162.521L143.599 161.862ZM138.18 161.238L137.397 161.401C137.468 161.739 137.746 161.993 138.089 162.033L138.18 161.238ZM136.314 152.281L135.573 151.98C135.513 152.127 135.498 152.289 135.531 152.444L136.314 152.281ZM142.142 137.912L141.916 137.144C141.682 137.213 141.492 137.385 141.401 137.611L142.142 137.912ZM145.68 136.871L145.906 137.639C146.231 137.543 146.46 137.254 146.479 136.916L145.68 136.871ZM145.889 133.125L145.961 132.328C145.745 132.308 145.53 132.377 145.366 132.519C145.201 132.661 145.102 132.864 145.09 133.08L145.889 133.125ZM148.178 133.333L148.106 134.13C148.33 134.15 148.552 134.075 148.718 133.924C148.884 133.772 148.978 133.558 148.978 133.333H148.178ZM148.178 130.419L147.786 129.722C147.534 129.863 147.378 130.13 147.378 130.419H148.178ZM151.508 128.546L151.901 129.243C152.054 129.157 152.174 129.023 152.243 128.862L151.508 128.546ZM161.09 106.26L160.79 105.519C160.594 105.598 160.438 105.751 160.355 105.944L161.09 106.26ZM168.798 103.138L169.099 103.88C169.187 103.844 169.268 103.793 169.338 103.729L168.798 103.138ZM173.586 98.7671L174.125 99.3579C174.446 99.0644 174.474 98.5679 174.188 98.2403L173.586 98.7671ZM167.758 92.1065L168.36 91.5797C168.216 91.4156 168.012 91.3173 167.794 91.3074L167.758 92.1065ZM163.178 91.8984L162.408 92.1124C162.5 92.4457 162.796 92.6819 163.142 92.6976L163.178 91.8984ZM160.056 80.6517L160.827 80.4377C160.79 80.3047 160.72 80.1836 160.622 80.086L160.056 80.6517ZM157.35 77.9458L156.724 77.4486C156.471 77.767 156.497 78.2241 156.785 78.5115L157.35 77.9458ZM162.97 70.862L163.597 71.3592C163.736 71.1842 163.795 70.9592 163.761 70.7385L162.97 70.862ZM161.93 64.2014L161.157 63.9953C161.128 64.1028 161.122 64.215 161.139 64.3249L161.93 64.2014ZM162.762 61.0793L162.175 60.5354C162.087 60.6311 162.023 60.7471 161.989 60.8731L162.762 61.0793ZM170.678 52.5384L170.583 51.7441C170.395 51.7667 170.221 51.8555 170.092 51.9946L170.678 52.5384ZM175.882 51.914L175.977 52.7083C176.01 52.7045 176.041 52.6987 176.073 52.6909L175.882 51.914ZM187.753 49L188.269 48.3884C188.073 48.2236 187.811 48.1621 187.562 48.2231L187.753 49ZM198.375 57.9571L199.169 57.8522C199.142 57.6547 199.044 57.474 198.891 57.3455L198.375 57.9571ZM200.249 72.1178L201.01 72.3629C201.047 72.25 201.057 72.1305 201.042 72.0129L200.249 72.1178ZM196.294 84.4052L195.533 84.1601C195.428 84.4851 195.541 84.8407 195.814 85.0454L196.294 84.4052ZM204.627 90.6495L205.406 90.4697C205.364 90.2857 205.258 90.1226 205.106 90.0093L204.627 90.6495ZM207.124 101.48H207.924C207.924 101.419 207.918 101.359 207.904 101.3L207.124 101.48ZM207.124 104.81L206.532 105.348C206.755 105.593 207.105 105.676 207.413 105.556C207.721 105.437 207.924 105.141 207.924 104.81H207.124ZM202.962 100.231L203.554 99.6929C203.331 99.4484 202.981 99.3657 202.673 99.4849C202.365 99.6041 202.162 99.9006 202.162 100.231H202.962ZM202.962 106.267H202.162C202.162 106.455 202.228 106.637 202.349 106.781L202.962 106.267ZM208.373 112.72H209.173C209.173 112.532 209.107 112.35 208.986 112.206L208.373 112.72ZM208.373 118.964H207.573C207.573 119.091 207.604 119.216 207.662 119.329L208.373 118.964ZM212.328 126.672L213.08 126.399C213.068 126.368 213.055 126.337 213.04 126.307L212.328 126.672ZM181.287 260.211L182.037 259.935C181.903 259.57 181.526 259.355 181.144 259.424C180.762 259.494 180.484 259.827 180.487 260.216L181.287 260.211ZM181.349 271.604L182.144 271.695C182.147 271.663 182.149 271.631 182.149 271.599L181.349 271.604ZM185.734 272.277L186.534 272.261C186.532 272.172 186.515 272.084 186.485 272L185.734 272.277ZM185.977 284.738L186.775 284.793C186.776 284.769 186.777 284.746 186.777 284.722L185.977 284.738ZM184.846 301.139L184.048 301.084C184.044 301.136 184.046 301.188 184.052 301.24L184.846 301.139ZM188.634 331.001L189.203 331.563C189.376 331.389 189.459 331.144 189.428 330.9L188.634 331.001ZM181.155 338.571L180.402 338.84C180.494 339.099 180.713 339.292 180.982 339.352C181.25 339.411 181.53 339.328 181.724 339.133L181.155 338.571ZM179.753 334.657L178.957 334.577C178.945 334.695 178.96 334.815 179 334.927L179.753 334.657ZM180.87 323.612L181.666 323.692C181.673 323.628 181.671 323.563 181.662 323.499L180.87 323.612ZM178.643 307.987L177.844 307.947C177.842 307.998 177.844 308.05 177.851 308.1L178.643 307.987ZM179.781 285.244L178.986 285.153C178.984 285.17 178.983 285.187 178.982 285.204L179.781 285.244ZM221.221 153.548L217.266 137.931L215.715 138.323L219.67 153.941L221.221 153.548ZM219.646 153.724V153.745H221.246V153.724H219.646ZM239.049 184.982L221.142 153.33L219.749 154.118L237.657 185.77L239.049 184.982ZM238.319 199.583L239.152 185.423L237.554 185.329L236.722 199.489L238.319 199.583ZM227.57 216.421L238.192 199.97L236.848 199.102L226.226 215.553L227.57 216.421ZM217.863 221.083L227.236 216.712L226.56 215.262L217.187 219.633L217.863 221.083ZM208.491 217.775L217.24 221.105L217.809 219.61L209.06 216.28L208.491 217.775ZM203.596 212.352L208.175 217.556L209.376 216.499L204.797 211.295L203.596 212.352ZM204.372 234.131L204.996 211.846L203.397 211.801L202.772 234.087L204.372 234.131ZM207.901 257.106L204.363 233.988L202.781 234.23L206.32 257.348L207.901 257.106ZM215.397 297.064L207.897 257.079L206.324 257.374L213.824 297.359L215.397 297.064ZM218.322 335.678L215.408 297.151L213.813 297.271L216.727 335.799L218.322 335.678ZM218.325 350.232V335.739H216.725V350.232H218.325ZM210.48 353.366L217.772 350.993L217.277 349.471L209.985 351.844L210.48 353.366ZM208.925 355.044L210.798 353.171L209.667 352.039L207.794 353.913L208.925 355.044ZM176.708 355.278H208.359V353.678H176.708V355.278ZM164.659 352.553L176.53 355.258L176.886 353.698L165.014 350.993L164.659 352.553ZM162.605 346.353L164.062 351.973L165.611 351.572L164.154 345.952L162.605 346.353ZM158.888 345.009L163.051 346.882L163.708 345.423L159.545 343.55L158.888 345.009ZM145.068 345.287L159.228 345.079L159.205 343.479L145.044 343.688L145.068 345.287ZM139.776 341.371L144.563 345.117L145.549 343.857L140.762 340.111L139.776 341.371ZM142.072 335.973L139.574 340.344L140.963 341.138L143.461 336.767L142.072 335.973ZM149.219 335.57H142.766V337.17H149.219V335.57ZM155.305 328.944L148.645 335.813L149.793 336.927L156.454 330.058L155.305 328.944ZM150.138 316.878L155.133 329.79L156.626 329.212L151.63 316.301L150.138 316.878ZM157.464 274.157L150.096 316.452L151.672 316.727L159.04 274.432L157.464 274.157ZM157.161 265.391L157.453 274.321L159.052 274.268L158.761 265.339L157.161 265.391ZM155.498 240.219L157.163 265.418L158.759 265.312L157.094 240.113L155.498 240.219ZM158.203 198.465L155.497 240.114L157.094 240.218L159.8 198.568L158.203 198.465ZM156.585 194.211L158.25 198.79L159.753 198.243L158.088 193.664L156.585 194.211ZM152.878 187.011L156.625 194.303L158.048 193.572L154.301 186.28L152.878 187.011ZM153.623 163.083L152.79 186.617L154.389 186.674L155.222 163.14L153.623 163.083ZM149.036 158.23L153.823 163.641L155.022 162.581L150.234 157.169L149.036 158.23ZM144.053 162.521L150.089 158.358L149.181 157.041L143.145 161.204L144.053 162.521ZM138.089 162.033L143.507 162.657L143.691 161.068L138.272 160.443L138.089 162.033ZM135.531 152.444L137.397 161.401L138.964 161.075L137.097 152.118L135.531 152.444ZM141.401 137.611L135.573 151.98L137.055 152.581L142.883 138.213L141.401 137.611ZM145.455 136.104L141.916 137.144L142.368 138.679L145.906 137.639L145.455 136.104ZM145.09 133.08L144.882 136.827L146.479 136.916L146.687 133.169L145.09 133.08ZM148.251 132.536L145.961 132.328L145.816 133.921L148.106 134.13L148.251 132.536ZM147.378 130.419V133.333H148.978V130.419H147.378ZM151.116 127.848L147.786 129.722L148.57 131.116L151.901 129.243L151.116 127.848ZM160.355 105.944L150.774 128.23L152.243 128.862L161.825 106.576L160.355 105.944ZM168.498 102.397L160.79 105.519L161.39 107.002L169.099 103.88L168.498 102.397ZM173.046 98.1763L168.259 102.547L169.338 103.729L174.125 99.3579L173.046 98.1763ZM167.155 92.6333L172.984 99.2939L174.188 98.2403L168.36 91.5797L167.155 92.6333ZM163.142 92.6976L167.721 92.9057L167.794 91.3074L163.215 91.0992L163.142 92.6976ZM159.285 80.8657L162.408 92.1124L163.949 91.6844L160.827 80.4377L159.285 80.8657ZM156.785 78.5115L159.491 81.2174L160.622 80.086L157.916 77.3801L156.785 78.5115ZM162.344 70.3648L156.724 77.4486L157.977 78.443L163.597 71.3592L162.344 70.3648ZM161.139 64.3249L162.18 70.9855L163.761 70.7385L162.72 64.0779L161.139 64.3249ZM161.989 60.8731L161.157 63.9953L162.703 64.4075L163.535 61.2854L161.989 60.8731ZM170.092 51.9946L162.175 60.5354L163.349 61.6231L171.265 53.0823L170.092 51.9946ZM175.787 51.1197L170.583 51.7441L170.774 53.3327L175.977 52.7083L175.787 51.1197ZM187.562 48.2231L175.691 51.1371L176.073 52.6909L187.944 49.7769L187.562 48.2231ZM198.891 57.3455L188.269 48.3884L187.237 49.6116L197.86 58.5687L198.891 57.3455ZM201.042 72.0129L199.169 57.8522L197.582 58.062L199.456 72.2227L201.042 72.0129ZM197.056 84.6503L201.01 72.3629L199.487 71.8727L195.533 84.1601L197.056 84.6503ZM205.106 90.0093L196.774 83.765L195.814 85.0454L204.147 91.2897L205.106 90.0093ZM207.904 101.3L205.406 90.4697L203.847 90.8293L206.345 101.66L207.904 101.3ZM207.924 104.81V101.48H206.324V104.81H207.924ZM202.37 100.769L206.532 105.348L207.716 104.272L203.554 99.6929L202.37 100.769ZM203.762 106.267V100.231H202.162V106.267H203.762ZM208.986 112.206L203.575 105.753L202.349 106.781L207.76 113.234L208.986 112.206ZM209.173 118.964V112.72H207.573V118.964H209.173ZM213.04 126.307L209.085 118.599L207.662 119.329L211.616 127.037L213.04 126.307ZM217.243 137.854L213.08 126.399L211.576 126.945L215.739 138.4L217.243 137.854ZM180.487 260.216L180.549 271.608L182.149 271.599L182.087 260.207L180.487 260.216ZM186.485 272L182.037 259.935L180.536 260.488L184.983 272.554L186.485 272ZM186.777 284.722L186.534 272.261L184.934 272.292L185.177 284.753L186.777 284.722ZM185.644 301.194L186.775 284.793L185.179 284.683L184.048 301.084L185.644 301.194ZM189.428 330.9L185.639 301.039L184.052 301.24L187.84 331.102L189.428 330.9ZM181.724 339.133L189.203 331.563L188.065 330.439L180.586 338.008L181.724 339.133ZM179 334.927L180.402 338.84L181.908 338.301L180.506 334.388L179 334.927ZM180.074 323.531L178.957 334.577L180.549 334.738L181.666 323.692L180.074 323.531ZM177.851 308.1L180.078 323.725L181.662 323.499L179.435 307.874L177.851 308.1ZM178.982 285.204L177.844 307.947L179.442 308.027L180.58 285.284L178.982 285.204ZM180.554 271.512L178.986 285.153L180.576 285.336L182.144 271.695L180.554 271.512Z" fill="#231F20"/>
<path d="M170.636 248.737C171.198 243.207 174.043 240.522 173.585 234.986C173.21 230.455 169.693 225.897 166.008 223.503C171.212 221.304 175.229 216.128 174.972 210.293C174.785 206.123 172.974 202.307 170.102 199.664C170.123 199.282 170.137 198.893 170.123 198.505C169.88 193.045 168.284 188.188 163.719 185.78C166.647 183.525 170.317 177.198 166.314 171.835C174.348 163.488 170.872 145.581 155.816 145.581C140.761 145.581 137.007 165.028 146.387 172.834C144.542 176.622 140.643 181.09 143.064 184.892C143.626 185.94 144.382 186.8 145.298 187.501C142.016 190.158 139.831 194.148 140.025 198.498C140.212 202.668 143.453 206.484 146.325 209.127C146.304 209.509 146.29 209.897 146.311 210.286C146.561 215.802 145.145 220.61 149.787 222.996C145.478 224.939 145.437 228.533 145.624 232.786C145.999 241.369 145.534 247.772 142.287 254.253C139.04 260.733 139.748 274.186 149.995 279.008C154.852 281.297 164.218 279.445 167.542 273.825C170.657 268.559 171.614 259.449 170.005 255.425C169.977 255.356 170.421 250.888 170.643 248.73L170.636 248.737Z" fill="white" stroke="#231F20" stroke-width="1.6" stroke-miterlimit="10"/>
<path d="M240.197 103.487C240.544 102.606 240.745 101.662 240.745 100.67V97.5343C240.745 95.4875 239.857 93.3367 238.407 91.8936C237.026 90.5129 234.751 89.4652 232.766 89.5554C230.706 89.6456 228.562 90.3256 227.126 91.8936C225.69 93.4547 224.788 95.3765 224.788 97.5343V100.67C224.788 102.238 225.315 103.862 226.21 105.187C224.864 109.808 227.299 115.698 233.55 115.698C240.586 115.698 242.806 108.205 240.197 103.487Z" fill="white" stroke="#231F20" stroke-width="1.6" stroke-miterlimit="10"/>
<path d="M96.7364 284.359C91.0402 285.732 87.1618 291.255 87.5017 296.965C76.2134 300.323 80.7301 318.341 92.5804 315.49C96.7919 314.477 98.9705 311.521 99.5186 308.24C100.476 308.253 101.447 308.163 102.412 307.927C108.781 306.394 112.888 299.671 111.355 293.302C109.815 286.912 103.009 282.846 96.6185 284.387L96.7364 284.359Z" fill="white" stroke="#231F20" stroke-width="1.6" stroke-miterlimit="10"/>
<path d="M236.63 294.174C236.408 293.682 236.186 293.196 235.964 292.704C235.381 291.774 234.59 291.038 233.598 290.49C233.078 290.241 232.557 289.998 232.037 289.748C231.281 289.297 230.462 289.054 229.588 289.019C228.714 288.839 227.832 288.874 226.958 289.13C226.098 289.318 225.356 289.692 224.717 290.234C224.003 290.671 223.434 291.247 223.017 291.961C222.795 292.454 222.573 292.946 222.351 293.432C222.039 294.521 222.039 295.618 222.351 296.707C222.573 297.2 222.795 297.692 223.017 298.178C223.6 299.107 224.391 299.843 225.383 300.391C225.904 300.641 226.424 300.884 226.944 301.133C227.701 301.584 228.519 301.827 229.394 301.862C230.268 302.042 231.149 302.008 232.023 301.751C232.883 301.564 233.626 301.189 234.264 300.648C234.979 300.211 235.548 299.635 235.964 298.92C236.186 298.428 236.408 297.942 236.63 297.449C236.942 296.36 236.942 295.264 236.63 294.174Z" fill="white" stroke="#231F20" stroke-width="1.6" stroke-miterlimit="10"/>
<path d="M221.173 158.551C223.58 161.132 226.598 164.31 225.384 168.084C223.733 173.191 220.486 178.186 218.113 182.987C214.235 190.82 226.973 196.725 230.747 189.107C233.96 182.619 239.011 175.321 239.677 167.98C240.391 160.105 235.431 154.125 230.394 148.727C227.889 146.042 222.817 146.659 220.472 149.164C217.683 152.14 218.689 155.887 221.173 158.544V158.551Z" fill="#FF885F" stroke="#231F20" stroke-width="1.6" stroke-linecap="round" stroke-linejoin="round"/>
<path d="M200.191 215.994C200.358 219.65 200.517 223.306 200.684 226.963C200.788 229.259 201.128 232.784 200.289 235.018C196.313 245.619 197.048 265.837 201.142 271.193C202.974 273.594 202.62 273.517 201.614 276.39C200.559 279.408 199.602 282.516 200.427 285.722C201.281 289.038 203.903 291.404 207.525 290.981C210.453 290.634 213.721 288.906 214.165 285.153C214.442 282.849 214.727 278.943 215.407 276.785C216.427 273.552 215.844 271.242 214.401 268.071C213.131 265.282 212.812 263.325 211.632 260.467C210.453 257.608 211.903 241.2 213.041 237.994C214.352 234.296 213.665 229.953 213.492 226.102C213.318 222.231 213.145 218.359 212.971 214.488C212.624 206.662 199.838 208.174 200.184 215.994H200.191Z" fill="#FF885F" stroke="#231F20" stroke-width="1.6" stroke-linecap="round" stroke-linejoin="round"/>
</svg>
