<svg width="306" height="357" viewBox="0 0 306 357" fill="none" xmlns="http://www.w3.org/2000/svg">
<path d="M203.97 327.251C191.981 327.48 185.508 323.747 180.617 321.451C180.575 321.367 179.493 319.48 178.917 318.856C178.3 318.183 177.758 317.767 177.085 317.343C177.286 316.559 175.309 316.393 175.323 315.845C175.365 313.735 174.615 311.696 173.332 310.017C170.681 306.541 166.297 305.493 162.148 305.32C159.067 305.195 155.924 306.825 155.508 310.169C155.14 313.146 157.666 316.372 160.76 316.497C161.156 316.511 163.584 316.601 164.34 316.649C164.264 316.934 163.556 322.255 166.366 326.231C172.485 334.869 184.086 337.603 187.118 338.511C191.683 339.885 196.616 337.956 201.029 339.275C213.365 342.966 212.227 327.098 203.977 327.258L203.97 327.251Z" fill="#FF885F" stroke="#231F20" stroke-width="1.6" stroke-linecap="round" stroke-linejoin="round"/>
<path d="M203.971 278.406C197.428 278.406 191.156 284.158 191.461 290.915C191.767 297.694 196.956 303.425 203.971 303.425C210.513 303.425 216.785 297.673 216.48 290.915C216.175 284.137 210.985 278.406 203.971 278.406Z" fill="white" stroke="#231F20" stroke-width="1.6" stroke-miterlimit="10"/>
<path d="M143.839 197.566C143.451 188.921 136.825 181.608 127.881 181.608C119.535 181.608 111.535 188.949 111.924 197.566C112.312 206.211 118.938 213.523 127.881 213.523C136.228 213.523 144.228 206.183 143.839 197.566Z" fill="white" stroke="#231F20" stroke-width="1.6" stroke-miterlimit="10"/>
<path d="M114.817 146.538C115.858 147.065 116.905 147.585 117.946 148.112C119.535 148.91 121.269 149.257 123.025 148.779C124.551 148.355 126.209 147.176 126.966 145.747C127.777 144.22 128.18 142.361 127.632 140.668C127.125 139.093 126.133 137.497 124.6 136.727C123.559 136.2 122.511 135.679 121.471 135.152C119.882 134.354 118.147 134.007 116.392 134.486C116.114 134.562 115.837 134.673 115.552 134.791C115.552 134.666 115.552 134.542 115.552 134.424C115.199 126.528 109.148 119.854 100.982 119.854C93.3642 119.854 86.0584 126.556 86.4123 134.424C86.7661 142.319 92.8161 148.994 100.982 148.994C105.256 148.994 109.433 146.884 112.208 143.644C112.77 144.838 113.631 145.934 114.817 146.531V146.538Z" fill="white" stroke="#231F20" stroke-width="1.6" stroke-miterlimit="10"/>
<path d="M155.404 95.7347L153.587 88.8244L156.861 82.2748H162.315L173.229 79L186.688 81.5463L195.784 87.3257L197.963 100.467L195.056 114.648L187.056 119.741L188.145 126.29L192.51 131.383L201.605 144.114L208.876 179.395L213.608 212.864L210.694 225.595L211.062 233.595L208.148 240.145L205.602 248.144H217.244L223.793 229.592L233.979 182.309L240.16 165.942L246.71 167.392L239.432 193.222L235.068 223.771L229.42 251.967L223.842 258.142L229.386 304.523L231.203 327.808H234.048L234.416 331.804H230.6L232.14 347.845L236.691 348.206L237.177 353.944L222.468 353.77L221.608 348.303L224.744 348.074L216.286 270.7L210.105 261.57H162.946L160.032 301.977L158.943 327.808H160.601V332.172H150.312V328.134L152.324 327.919L156.868 260.071L153.566 259.426L144.22 340.248L143.526 348.58H145.365V354.249L134.084 354.048L133.39 347.963H135.998L146.878 259.037H135.658L126.896 290.238L124.12 310.9L125.355 318.344V325.99L130.108 329.084L129.699 332.394L102.217 332.803L98.6992 336.321L100.767 344.168V351.196L77.7114 354.089L45.685 352.23L43 345.41L51.2633 343.758L64.4873 338.59L79.1615 327.849L75.6508 323.922L70.4819 321.647L71.9251 305.12L85.947 237.251L86.5714 231.763L88.7707 227.843L111.694 217.048L126.778 211.303L149.708 197.253L155.703 184.237L154.051 165.227L156.737 152.62L159.63 140.014L168.115 126.693L159.158 126.054L154.35 116.556L150.104 113.08L155.127 103.811L155.404 95.7347Z" fill="#FABEE8" stroke="#231F20" stroke-width="1.6" stroke-linecap="round" stroke-linejoin="round"/>
<path d="M263.675 238.882C263.675 238.882 269.559 231.867 263.814 223.007C261.233 219.032 256.182 216.368 256.182 216.368C256.945 197.94 227.93 198.224 227.93 198.224C223.386 188.539 214.227 191.626 214.227 191.626C214.227 191.626 215.976 184.716 212.479 180.178C215.303 178.347 217.613 175.433 218.862 172.311C220.007 172.297 221.138 172.144 222.241 171.873C226.806 175.724 234.244 176.425 239.586 173.317C237.477 182.544 244.623 192.278 254.364 192.161C262.288 192.161 269.878 185.195 269.517 177.008C269.399 166.205 257.487 158.198 247.669 163.52C250.77 152.294 240.079 140.395 228.457 143.462C221.068 137.079 208.448 140.263 204.181 148.964C200.656 149.165 197.021 149.873 194.211 152.114C179.218 150.088 169.733 167.905 180.189 179.034C180.154 180.248 180.293 181.49 180.522 182.669C167.631 189.982 172.044 209.88 186.142 212.246C185.927 224.992 199.47 232.582 210.599 227.247C215.178 231.895 219.903 235.205 226.334 234.476C226.612 238.715 230.74 240.637 230.74 240.637C230.74 240.637 228.999 241.844 227.354 243.544C221.193 249.913 221.63 258.191 222.053 261.431C215.095 263.297 210.245 269.305 210.8 276.771C209.78 280.767 210.203 285.173 212.305 288.427C225.627 309.997 266.215 295.566 259.79 265.934C259.589 265.018 268.685 261.202 263.668 238.875L263.675 238.882Z" fill="white" stroke="#231F20" stroke-width="1.6" stroke-miterlimit="10"/>
<path d="M187.099 271.761C186.739 263.678 180.73 256.802 172.501 256.379C171.898 255.775 171.294 255.172 170.691 254.568C165.542 237.771 140.857 241.441 140.676 258.981C141.099 269.18 151.097 274.98 157.217 281.988C159.555 284.326 162.746 285.72 166.042 286.067C167.777 286.768 169.678 287.163 171.704 287.163C179.759 287.163 187.481 280.08 187.106 271.761H187.099Z" fill="white" stroke="#231F20" stroke-width="1.6" stroke-miterlimit="10"/>
<path d="M178.85 312.088C170.364 312.088 170.35 325.271 178.85 325.271C187.349 325.271 187.349 312.088 178.85 312.088Z" fill="white" stroke="#231F20" stroke-width="1.6" stroke-miterlimit="10"/>
<path d="M190.033 139.98C195.334 139.022 199.871 134.325 200.496 128.948C200.85 125.84 199.247 122.447 195.937 121.698C193.12 121.059 189.318 122.502 188.944 125.805C188.916 126.159 188.86 126.513 188.777 126.86C188.597 127.512 188.59 127.547 188.749 126.957C188.597 127.276 188.416 127.588 188.222 127.886C188.541 127.435 188.562 127.373 188.285 127.692C188.104 127.893 187.917 128.081 187.709 128.254C188.222 127.866 188.187 127.859 187.612 128.24C187.008 128.539 186.98 128.566 187.535 128.317C187.195 128.421 186.848 128.497 186.494 128.546C183.428 129.101 181.638 132.861 182.63 135.678C183.754 138.856 186.744 140.576 190.033 139.98Z" fill="#FF885F" stroke="#231F20" stroke-width="1.6" stroke-linecap="round" stroke-linejoin="round"/>
<path d="M113.61 271.741C116.815 278.207 117.53 288.136 130.455 300.083C138.656 307.667 149.167 300.68 143.797 294.29C139.551 289.239 123.601 273.059 126.445 259.863C128.006 252.634 114.685 249.553 113.332 259.128C113.332 259.128 111.015 266.524 113.603 271.741H113.61Z" fill="#FF885F" stroke="#231F20" stroke-width="1.6" stroke-linecap="round" stroke-linejoin="round"/>
</svg>
